<?xml version="1.0" encoding="utf-8"?>
<!-- Generator: Adobe Illustrator 16.0.0, SVG Export Plug-In . SVG Version: 6.00 Build 0)  -->
<!DOCTYPE svg PUBLIC "-//W3C//DTD SVG 1.1//EN" "http://www.w3.org/Graphics/SVG/1.1/DTD/svg11.dtd">
<svg version="1.1"
	 id="svg1948" sodipodi:docname="Blank Map of Europe - no boundaries.svg" sodipodi:docbase="e:\" inkscape:version="0.44" sodipodi:version="0.32" xmlns:inkscape="http://www.inkscape.org/namespaces/inkscape" xmlns:svg="http://www.w3.org/2000/svg" xmlns:sodipodi="http://sodipodi.sourceforge.net/DTD/sodipodi-0.dtd" xmlns:rdf="http://www.w3.org/1999/02/22-rdf-syntax-ns#" xmlns:dc="http://purl.org/dc/elements/1.1/" xmlns:cc="http://web.resource.org/cc/"
	 xmlns="http://www.w3.org/2000/svg" xmlns:xlink="http://www.w3.org/1999/xlink" x="0px" y="0px" width="2290.785px"
	 height="2186.785px" viewBox="0 0 2290.785 2186.785" enable-background="new 0 0 2290.785 2186.785" xml:space="preserve">
<sodipodi:namedview  inkscape:showpageshadow="true" inkscape:current-layer="svg1948" inkscape:window-y="-4" inkscape:window-x="-4" inkscape:window-height="708" inkscape:pageopacity="0.0" inkscape:pageshadow="2" inkscape:window-width="1024" id="base" objecttolerance="10.0" showborder="true" inkscape:cx="1142.5" inkscape:zoom="0.17285649" pagecolor="#ffffff" bordercolor="#666666" borderopacity="1.0" guidetolerance="10.0" inkscape:cy="1090.5" gridtolerance="10.0">
	</sodipodi:namedview>
<path id="path2308" fill="#9EC7F3" d="M0,1090.5V0h1142.5H2285v1090.5V2181H1142.5H0V1090.5z"/>
<path id="path2294" fill="#FFFFD0" d="M6.029,2109.035c0.202-61.316,0.521-77.776,1.506-77.875c0.688-0.068,1.635-0.182,2.106-0.25
	c0.471-0.068,2.833-1.631,5.25-3.473c4.51-3.436,7.831-4.271,26.394-6.641c8.634-1.102,28.09-5.756,31.573-7.553
	c1.415-0.73,3.199-2.082,3.965-3.005c1.823-2.196,17.692-12.776,23.824-15.884c5.845-2.962,22.388-19.374,24.622-24.426
	c2.703-6.115,3.061-6.531,8.119-9.476c9.562-5.566,10.03-6.374,10.808-18.665c0.753-11.908,1.166-10.407-6.455-23.504
	c-2.579-4.432-2.912-5.958-2.933-13.424c-0.021-7.761,0.283-9.06,3.865-16.5c2.139-4.441,4.674-10.273,5.634-12.96
	c0.96-2.687,3.492-6.63,5.626-8.765c2.134-2.135,5.673-7.362,7.864-11.616c3.266-6.344,3.983-8.757,3.985-13.413
	c0.002-5.287,0.246-5.878,3.558-8.608c1.956-1.612,5.348-3.468,7.539-4.124c5.283-1.583,9.272-6.154,9.905-11.353
	c0.426-3.494,0.926-4.218,3.367-4.865c1.577-0.419,3.515-1.687,4.307-2.817c0.95-1.356,2.544-2.055,4.688-2.055
	c1.896,0,4.661-1.042,6.638-2.5c1.864-1.375,3.929-2.5,4.59-2.5c0.661,0,8.336-3.585,17.056-7.967
	c16.698-8.391,27.335-16.174,30.506-22.32c0.912-1.768,2.825-4.304,4.252-5.637c1.428-1.334,2.596-2.958,2.596-3.609
	c0-0.652,1.729-3.161,3.842-5.576c2.425-2.771,4.066-5.801,4.449-8.213c0.333-2.103,3.157-8.388,6.273-13.968
	c3.735-6.687,5.909-11.861,6.377-15.178c0.391-2.768,1.687-6.607,2.88-8.532s2.172-4.647,2.174-6.05
	c0.006-4.037,1.773-4.95,9.579-4.95h7.175l4.089,8.522c6.479,13.503,14.665,21.009,28.589,26.214
	c3.759,1.406,11.979,2.22,41.073,4.065c9.106,0.578,11.544,1.086,14.154,2.948c3.055,2.18,3.884,2.25,26.636,2.25h23.483l6.51-3.046
	c3.58-1.676,8.243-3.296,10.362-3.601c5.958-0.857,13.884-4.001,18.48-7.331c2.923-2.117,5.325-3.022,8.021-3.022
	c2.324,0,5.771-1.073,8.702-2.709c4.581-2.559,5.08-2.634,8.948-1.357c5.382,1.776,10.046,0.089,10.849-3.925
	c0.89-4.451,10.374-12.72,18.374-16.019c8.847-3.647,12.387-6.15,13.913-9.835c1.89-4.562,4.558-5.155,23.161-5.155
	c13.911,0,17.585-0.303,20.203-1.664c2.384-1.24,7.063-1.814,18.34-2.25c13.859-0.536,15.297-0.768,17-2.738
	c2.818-3.26,17.146-9.182,24.942-10.309c3.805-0.55,11.868-1.02,17.918-1.044s13.025-0.512,15.5-1.083
	c6.465-1.491,10.31-0.411,16.508,4.637c3.005,2.448,6.034,4.451,6.731,4.451c0.698,0,3.841-2.452,6.984-5.448
	c7.437-7.09,8.428-7.552,16.198-7.552c6.352,0,6.67-0.123,10.316-3.998c3.177-3.377,4.384-3.997,7.762-3.989
	c2.2,0.005,6.209,0.679,8.909,1.498s7.045,1.489,9.655,1.489c3.975,0,5.438-0.578,9.007-3.56c3.84-3.208,4.665-3.495,8.345-2.901
	c2.246,0.363,6.038,1.508,8.426,2.545c4.804,2.085,9.975,1.559,14.276-1.454c1.451-1.017,4.353-1.63,7.71-1.63
	c7.167,0,17.106-2.644,20.042-5.331c1.303-1.192,3.398-3.744,4.655-5.669c5.527-8.46,7.555-10,14.475-10.993
	c3.575-0.514,7.987-1.229,9.806-1.592c2.613-0.521,3.799-0.195,5.656,1.549c1.907,1.792,2.731,2.003,4.378,1.122
	c3.34-1.787,5.439-1.219,9.94,2.693c3.631,3.156,4.403,4.512,5.095,8.931c0.952,6.096,2.469,8.29,5.728,8.29
	c1.743,0,2.889-1.042,4.397-4c1.122-2.2,2.533-4,3.136-4s2.73-1.771,4.729-3.938c4.228-4.579,8.751-6.227,9.774-3.561
	c0.741,1.934-1.868,11.007-4.869,16.925c-1.096,2.159-4.246,6.312-7.003,9.226l-5.012,5.299l0.423,5.846
	c0.357,4.943,1.115,6.837,4.906,12.273c2.466,3.536,5.955,7.33,7.753,8.43c8.418,5.148,13.07,9.509,14.122,13.232
	c1.831,6.485,2.301,17.525,0.845,19.849c-4.073,6.499-11.066,15.504-22.055,28.399c-4.263,5.002-7.75,9.715-7.75,10.472
	c0,2.512,10.219,15.123,15.301,18.884c5.887,4.355,9.269,5.414,11.947,3.741c1.071-0.669,2.039-1.072,2.152-0.896
	c0.112,0.176,0.957,1.522,1.876,2.993c2.561,4.1,5.668,4.634,8.233,1.416c1.449-1.817,2.674-2.457,3.846-2.007
	c2.146,0.823,4.645,5.527,4.645,8.745c0,3.979,2.532,5.158,11.405,5.315c14.12,0.25,23.56,1.866,30.595,5.238
	c6.27,3.006,6.972,3.116,19.79,3.117c11.868,0.001,13.739-0.239,17.5-2.249c3.869-2.068,5.763-2.276,23.391-2.576l19.181-0.325
	l6.305,3.075c6.215,3.032,6.525,3.076,21.847,3.076c12.758,0,15.96,0.293,17.873,1.633c3.39,2.374,6.066,9.039,6.092,15.167
	c0.026,6.173,1.668,9.775,7.184,15.76c2.722,2.952,5.64,4.877,9.166,6.046c2.845,0.942,6.39,2.611,7.877,3.709
	c2.475,1.824,3.758,1.944,15.123,1.407c11.121-0.525,13.139-0.916,19.296-3.735c6.524-2.987,7.363-3.125,16.377-2.691
	c7.465,0.359,10.464,0.966,14,2.831c4.06,2.142,6.113,2.423,21,2.874l16.5,0.5l6,4.105c9.182,6.282,11.524,7.217,21.066,8.402
	c14.581,1.812,21.323-0.251,24.419-7.474c1.065-2.485,2.76-4.636,3.951-5.014c2.26-0.718,4.088-3.749,6.043-10.021
	c0.686-2.2,2.807-7.109,4.715-10.91c4.117-8.205,3.944-10.983-1.148-18.387c-1.863-2.709-5.447-8.925-7.965-13.814
	c-4.143-8.043-4.578-9.549-4.579-15.83c-0.002-6.359,0.337-7.493,4.031-13.5c2.218-3.607,6.959-9.934,10.536-14.059
	s8.482-10.479,10.901-14.118s5.139-6.901,6.045-7.25c0.906-0.348,3.977-0.632,6.823-0.632c4.688,0,5.692-0.434,10.668-4.602
	c3.021-2.53,7.858-5.714,10.75-7.076l5.256-2.475l22.041,0.722l22.041,0.722l1.333,3.104c0.733,1.707,2.937,4.63,4.895,6.494
	l3.562,3.39l23.308-1.134c22.878-1.113,28.149-1.834,34.46-4.71c6.044-2.754,6.698-2.517,21.738,7.877
	c6.132,4.236,10.769,3.321,20.503-4.047c3.983-3.015,6.803-4.263,11.446-5.068c3.389-0.588,10.211-1.953,15.161-3.034
	c7.395-1.614,14.352-2.061,39-2.505l30-0.541l9-3.154c11.226-3.935,17.869-4.672,22.956-2.546c5.253,2.195,7.17,1.96,13.997-1.714
	c5.262-2.83,6.671-4.309,12.12-12.703c3.392-5.225,8.903-12.208,12.248-15.518c4.961-4.91,6.207-6.811,6.769-10.318
	c0.973-6.081,3.384-7.428,11.765-6.568c6.903,0.707,11.646-0.92,11.646-3.996c0-0.745,0.673-1.913,1.495-2.596
	c0.823-0.683,2.037-3.048,2.698-5.256l1.203-4.014l8.019,0.618l8.02,0.618l3.356-3.235l3.356-3.235l1.916,2.5
	c3.508,4.578,6.373,6.999,8.415,7.11c6.748,0.37,12.582-1.333,17.969-5.244c2.839-2.062,5.113-2.866,8.101-2.866
	c2.53,0,6.025-0.995,8.942-2.546c2.634-1.4,7.538-3.699,10.899-5.109c3.36-1.409,7.91-3.788,10.11-5.285
	c14.94-10.168,13.177-8.097,21.273-24.983l7.468-15.576l-0.655-14.276c-0.36-7.852-1.056-15.329-1.545-16.615
	c-0.489-1.287-1.177-7.237-1.529-13.224c-0.352-5.986-1.354-14.39-2.229-18.674c-1.351-6.618-1.4-8.797-0.334-14.5
	c1.077-5.751,1.027-7.59-0.347-12.855c-1.027-3.939-1.603-10.33-1.603-17.807c0-6.415-0.504-13.663-1.119-16.106
	c-1.055-4.19-0.909-4.868,2.562-11.892c3.253-6.583,3.566-7.859,2.702-10.987c-0.537-1.946-2.59-5.061-4.561-6.92
	c-3.356-3.165-3.584-3.77-3.584-9.526c0-6.113-0.029-6.174-5.121-10.882c-2.816-2.604-6.819-6.323-8.895-8.263
	c-2.591-2.422-4.279-5.225-5.382-8.939c-1.535-5.169-1.518-5.584,0.396-9.254c1.101-2.112,2.002-4.614,2.002-5.561
	c0-0.945-2.326-3.771-5.17-6.278l-5.171-4.56l2.17-8.654c2.451-9.772,2.614-12.157,1.121-16.439
	c-2.216-6.356-10.438-6.353-13.071,0.006c-0.712,1.717-2.737,5.267-4.501,7.889c-1.765,2.621-3.513,6.154-3.886,7.853
	c-0.98,4.466-4.018,5.29-16.771,4.551c-6.824-0.396-11.498-0.239-12.739,0.425c-2.11,1.13-4.981,5.956-4.981,8.374
	c0,0.815-1.333,3.65-2.963,6.3c-2.703,4.396-8.037,21.917-8.037,26.402c0,1.08-2.215,3.551-5.25,5.856
	c-2.888,2.194-6.414,4.877-7.836,5.963s-5.099,3.086-8.17,4.444s-7.3,3.635-9.396,5.06c-3.164,2.15-4.951,2.591-10.511,2.591
	c-7.632,0-11.293-1.725-18.328-8.635c-4.666-4.582-4.977-4.651-26.657-5.921l-10.648-0.623l-3.879,3.505
	c-3.022,2.73-5.302,3.763-10.31,4.671c-8.089,1.467-11.819,3.375-12.589,6.44c-0.358,1.429,0.445,5.438,1.986,9.899
	c2.947,8.54,3.302,13.992,1.033,15.874c-0.855,0.709-2.896,2.526-4.535,4.039c-1.639,1.513-3.316,2.75-3.729,2.75
	c-0.412,0-1.573,1.395-2.58,3.099c-1.021,1.729-3.439,3.742-5.466,4.552c-1.999,0.798-4.991,2.148-6.649,3.001
	c-4.275,2.198-7.898,1.479-8.331-1.651c-0.19-1.375-0.808-3.062-1.373-3.75c-1.512-1.842-6.52-1.541-7.639,0.459
	c-0.786,1.405-1.507,0.571-4.059-4.697c-3.356-6.928-4.382-7.973-7.851-7.996c-1.612-0.012-2.747,0.993-3.935,3.484
	c-0.918,1.925-2.204,3.5-2.858,3.5c-0.653,0-3.281-1.17-5.839-2.6c-4.403-2.461-4.782-2.513-7.126-0.977
	c-1.361,0.893-2.49,2.399-2.509,3.35c-0.041,2.123-2.799,5.531-5.758,7.115c-1.382,0.739-2.252,2.198-2.324,3.896
	c-0.094,2.209-0.289,1.97-1.048-1.285c-0.514-2.2-1.289-6.203-1.725-8.896c-1.354-8.377-8.061-10.472-11.603-3.623
	c-1.75,3.385-11.345,8.298-15.248,7.808l-2.762-0.347l3.706-2.293c6.675-4.132,6.386-9.49-0.697-12.932
	c-2.51-1.22-5.4-2.217-6.424-2.217s-3.842-1.952-6.262-4.339c-5.528-5.449-10.888-6.679-16.586-3.804
	c-2.056,1.037-4.75,2.199-5.987,2.582c-3.54,1.094-2.833-2.101,1-4.521c2.687-1.695,4.328-1.96,9.469-1.525
	c7.69,0.649,9.797-0.829,8.916-6.258c-0.924-5.688-3.449-7.377-12.337-8.251c-4.289-0.421-9.334-1.079-11.211-1.463
	c-2.634-0.537-3.701-0.303-4.675,1.029c-0.85,1.162-2.923,1.816-6.338,2c-4.444,0.239-5.074,0.033-5.074-1.66
	c0-1.063,0.675-2.609,1.5-3.434c2.308-2.309,1.795-5.216-1.5-8.512c-3.439-3.439-3.781-4.846-1.175-4.846
	c1.904,0,3.857,1.672,7.2,6.163c3.303,4.437,12.733,5.024,14.924,0.931c1.725-3.222-0.068-6.121-6.195-10.017l-5.982-3.804
	l3.864-1.887c2.583-1.262,3.975-2.666,4.197-4.238c0.529-3.739-0.67-6.962-2.847-7.652c-1.104-0.352-2.682-1.939-3.504-3.53
	c-1.008-1.947-2.719-3.233-5.239-3.936c-2.059-0.573-4.827-1.883-6.151-2.91l-2.408-1.867l2.158-3.031
	c2.797-3.928,2.724-5.805-0.304-7.789c-3.084-2.021-8.045-0.659-11.641,3.193c-1.319,1.413-4.027,3.404-6.02,4.427l-3.622,1.857
	l0.497-4.41c0.377-3.342-0.018-5.284-1.628-8.013c-2.615-4.433-2.641-5.189-0.194-5.965c2.407-0.765,3.588-5.685,2.052-8.555
	c-1.575-2.944,0.259-7.151,4.541-10.418c1.909-1.456,3.597-3.82,3.983-5.582c0.868-3.952,4.915-7.968,8.03-7.968
	c1.363,0,2.999-0.886,3.695-2c0.719-1.15,2.332-2,3.799-2c1.696,0,3.783-1.34,6.229-4c4.28-4.654,9.305-5.528,11.508-2
	c0.758,1.213,2.332,2,4,2s3.243,0.787,4,2c0.688,1.1,2.142,2,3.232,2s2.545-0.9,3.232-2c0.952-1.525,2.332-2,5.808-2
	c5.057,0,6.96-1.273,6.96-4.654c0-1.24,1.146-3.4,2.545-4.801c2.178-2.177,3.444-2.547,8.75-2.556
	c5.716-0.01,6.461-0.274,9.455-3.356c2.39-2.46,3.25-4.257,3.25-6.789c0-4.625-1.502-5.844-7.2-5.844c-4.433,0-4.8-0.188-4.8-2.461
	c0-1.354-0.953-3.349-2.117-4.434c-1.654-1.541-2.016-2.807-1.655-5.789c0.254-2.1-0.005-4.861-0.576-6.138
	c-1.255-2.808-0.845-3.124,8.849-6.831c3.85-1.473,8.35-3.685,10-4.916c3.061-2.283,18.79-7.921,30.5-10.932
	c3.575-0.92,8.47-2.646,10.877-3.836c3.826-1.892,4.733-3.013,7.2-8.895c3.234-7.715,8.795-16.184,15.075-22.96
	c2.392-2.579,5.636-6.3,7.21-8.266c1.574-1.967,4.58-4.807,6.68-6.31c2.1-1.504,5.03-4.807,6.513-7.34
	c1.483-2.532,4.552-6.033,6.82-7.779s6.9-5.336,10.294-7.979c6.52-5.076,8.802-6.091,24.96-11.093
	c5.57-1.725,11.854-4.016,13.961-5.09c4.595-2.343,8.692-2.472,14.41-0.454c6.363,2.245,9.4,1.864,17.164-2.154
	c8.037-4.159,12.688-4.65,22.564-2.384c5.781,1.327,6.498,1.293,10-0.474c3.246-1.637,6.835-1.978,25.771-2.445
	c21.362-0.527,22.159-0.621,27.5-3.251c5.876-2.892,21.393-15.873,26.732-22.363c1.778-2.161,3.916-4.716,4.75-5.679
	c1.216-1.401,3.159-1.751,9.768-1.755c10.025-0.007,13.156-1.619,20.378-10.495c7.212-8.864,10.033-13.322,12.907-20.395
	c1.421-3.496,3.277-7.416,4.126-8.711c1.781-2.719,1.447-7.418-1.236-17.395c-0.961-3.575-2.136-8.164-2.611-10.198
	c-0.682-2.922-2.591-5.18-9.088-10.749c-10.742-9.208-14.767-11.022-27.257-12.285c-8.812-0.892-10.224-1.294-11.036-3.145
	c-0.737-1.679-1.97-2.188-5.883-2.437c-3.519-0.222-5.342-0.873-6.307-2.25c-1.221-1.742-2.628-1.937-14.06-1.937
	c-11.619,0-12.809-0.17-13.951-2c-0.965-1.544-2.332-2-6-2s-5.036-0.456-6-2c-0.758-1.213-2.332-2-4-2s-3.243-0.787-4-2
	c-0.965-1.544-2.332-2-6-2s-5.036-0.456-6-2c-0.758-1.213-2.332-2-4-2s-3.243-0.787-4-2c-1.049-1.68-2.332-2-8-2s-6.952-0.321-8-2
	c-1.049-1.68-2.332-2-8-2s-6.952-0.321-8-2c-1.023-1.638-2.332-2-7.232-2s-6.209,0.362-7.232,2c-0.687,1.1-1.933,2-2.768,2
	c-0.836,0-2.081-0.9-2.768-2c-1.785-2.857-4.289-2.477-7.735,1.175c-2.664,2.823-3.037,2.962-3.354,1.25
	c-0.851-4.577-5.147-5.991-7.375-2.425c-1.913,3.063-4.768,2.584-4.768-0.8c0-1.54-0.54-3.34-1.2-4
	c-0.933-0.934-0.713-1.2,0.991-1.2c1.206,0,2.754-0.9,3.441-2c0.72-1.153,2.332-2,3.808-2c3.169,0,4.96-1.691,4.96-4.682
	c0-1.479,2.106-4.308,5.995-8.05l5.995-5.769l0.005-9.691c0.003-5.387-0.439-9.965-0.995-10.309
	c-1.741-1.076-1.126-2.182,3.984-7.151c6.291-6.119,6.732-9.868,1.766-14.981c-2.781-2.864-3.935-3.348-8-3.356l-4.75-0.011v-5.76
	c0-4.676,0.376-5.994,2-7.008c1.142-0.713,2-2.332,2-3.771c0-1.664,1.362-3.775,4-6.201c2.66-2.445,4-4.532,4-6.229
	c0-1.467,0.85-3.08,2-3.799c1.213-0.758,2-2.332,2-4s0.787-3.243,2-4c1.615-1.01,2-2.332,2-6.885c0-5.005-0.363-6.01-3.25-8.98
	c-2.435-2.506-4.112-3.349-6.685-3.356c-2.976-0.01-4.484,1.057-11.306,7.989c-4.84,4.918-8.675,8-9.954,8
	c-3.093,0-24.806,21.989-24.806,25.121c0,1.318-0.9,2.96-2,3.646c-1.142,0.713-2,2.332-2,3.771c0,1.664-1.362,3.775-4,6.201
	c-2.833,2.604-4,4.492-4,6.469c0,2.375-0.409,2.793-2.75,2.802c-3.612,0.014-9.25,5.71-9.25,9.346c0,2.599-0.115,2.644-6.8,2.644
	c-3.956,0-7.302,0.502-8,1.2c-0.66,0.66-1.2,3.252-1.2,5.759c0,3.477-0.475,4.856-2,5.809c-1.513,0.945-2,2.332-2,5.695
	c0,5.045-3.415,9.52-7.296,9.561c-3.235,0.033-12.704,9.975-12.704,13.338c0,2.485-0.279,2.639-4.8,2.639
	c-5.409,0-7.2,1.233-7.2,4.959c0,1.477-0.847,3.088-2,3.809c-2.843,1.775-2.486,4.02,1.25,7.865
	c3.713,3.822,6.185,4.246,7.982,1.367c0.757-1.213,2.332-2,4-2s3.242-0.787,4-2c0.687-1.1,1.594-2,2.017-2s0.205,0.901-0.483,2.003
	c-2.024,3.243,0.106,5.442,5.622,5.804c4.251,0.277,5.211,0.854,10.397,6.245c3.991,4.147,6.472,5.94,8.225,5.943
	c1.422,0.003,3.05,0.871,3.758,2.005c2.459,3.937,7.232,1.824,7.232-3.2c0-2.385,0.407-2.802,2.75-2.811
	c3.611-0.014,9.25-5.71,9.25-9.346c0-2.564,0.18-2.644,6-2.644c5.904,0,6,0.044,6,2.8c0,1.54,0.54,3.34,1.2,4
	c0.933,0.934,0.766,1.2-0.753,1.2c-1.075,0-3.229,1.35-4.785,3c-2.998,3.176-4.158,3.625-5.162,2
	c-1.311-2.121-4.199-0.752-9.25,4.385c-4.595,4.672-5.25,5.845-5.25,9.397c0,3.488-0.645,4.704-4.579,8.639
	c-2.689,2.689-5.495,4.579-6.8,4.579c-3.586,0-4.621,1.957-4.621,8.731c0,6.106-0.142,6.461-4,10.009c-2.833,2.604-4,4.492-4,6.469
	c0,2.714-0.151,2.791-5.455,2.791c-4.511,0-5.895-0.44-8-2.546c-2.308-2.308-2.545-3.3-2.545-10.644
	c0-7.783-0.126-8.228-3.25-11.443c-3.942-4.059-9.879-4.735-11.982-1.367c-1.596,2.556-3.939,2.556-5.535,0
	c-1.021-1.635-2.332-2-7.185-2c-4.972,0-6.184,0.355-7.468,2.189c-0.844,1.204-1.785,1.938-2.092,1.633
	c-0.307-0.307,1.701-2.755,4.462-5.44c4.627-4.501,5.02-5.253,5.034-9.632c0.015-4.506,0.157-4.751,2.766-4.773
	c1.984-0.016,4.212-1.509,8-5.361c5.666-5.762,6.371-7.898,3.25-9.848c-1.154-0.721-2-2.332-2-3.809
	c0-3.551-1.758-4.959-6.191-4.959c-2.709,0-4.148,0.571-5.041,2c-1.596,2.556-3.939,2.556-5.535,0c-0.893-1.429-2.332-2-5.041-2
	c-4.323,0-6.191,1.404-6.191,4.654c0,2.99-4.469,7.346-7.537,7.346c-1.363,0-2.999,0.886-3.695,2
	c-1.583,2.535-3.937,2.561-5.499,0.059c-0.819-1.312-2.57-2.041-5.405-2.25l-4.194-0.309l5.15-5c4.279-4.155,5.152-5.6,5.165-8.55
	c0.025-5.695-4.56-8.205-7.217-3.95c-0.721,1.153-2.332,2-3.809,2c-1.407,0-3.046,0.486-3.641,1.082
	c-1.657,1.656-5.318-1.074-5.318-3.966c0-3.85-5.788-9.093-10.05-9.105c-5.697-0.018-8.204,4.565-3.95,7.222
	c1.153,0.72,2,2.332,2,3.808c0,1.408,0.54,3.1,1.2,3.76c0.933,0.934,0.933,1.467,0,2.4c-0.934,0.933-1.467,0.933-2.4,0
	c-0.66-0.66-1.897-1.195-2.75-1.189c-2.271,0.016-8.05,6.353-8.05,8.827c0,1.288-2.359,4.395-5.995,7.894l-5.995,5.769
	l-0.005,12.204c-0.005,11.74-0.102,12.302-2.551,14.75c-1.399,1.4-3.56,2.546-4.8,2.546s-2.794,0.54-3.454,1.2
	c-1.451,1.45-1.602,8.434-0.2,9.3c1.741,1.076,1.125,2.182-3.984,7.151c-4.119,4.007-4.987,5.465-5,8.398
	c-0.019,4.274,1.441,5.95,5.185,5.95c2.692,0,2.8,0.191,2.8,4.991c0,3.909,0.434,5.263,2,6.241c3.424,2.138,2.647,7.16-1.75,11.318
	c-3.173,3-3.805,3.269-4.107,1.747c-1.031-5.183-4.418-5.537-8.893-0.931c-3.736,3.846-4.093,6.09-1.25,7.865
	c1.1,0.687,2,1.932,2,2.768c0,0.835-0.9,2.081-2,2.768c-2.809,1.755-2.809,8.71,0,10.465c1.68,1.048,2,2.332,2,8s0.32,6.951,2,8
	c1.799,1.123,2,2.332,2,12s0.201,10.877,2,12c1.624,1.014,2,2.332,2,7.008c0,5.614-0.069,5.76-2.75,5.771
	c-3.461,0.013-9.25,5.712-9.25,9.104c0,1.322-0.9,2.966-2,3.652c-2.809,1.755-2.809,8.71,0,10.465c1.213,0.757,2,2.332,2,4
	s0.787,3.242,2,4c2.556,1.596,2.556,3.939,0,5.535c-1.213,0.758-2,2.332-2,4s-0.787,3.243-2,4c-3.727,2.327-1.874,7.232,2.731,7.232
	c1.439,0,3.736,1.529,6.009,4c2.194,2.388,4.583,4,5.923,4c2.9,0,7.337,4.441,7.337,7.346c0,3.029,1.814,4.654,5.2,4.654
	c2.785,0,2.8,0.034,2.8,6.644c0,6.143,0.245,6.896,3.25,9.989c2.683,2.762,3.998,3.348,7.531,3.356
	c3.708,0.009,4.772,0.546,7.959,4.011l3.678,4h10.791h10.791v2.51c0,1.381,0.9,3.28,2,4.223c1.1,0.941,2,2.512,2,3.49
	c0,1.612-1.208,1.777-12.991,1.777c-11.909,0-13.096,0.167-14.241,2c-0.964,1.544-2.332,2-6,2s-5.035,0.456-6,2
	c-0.721,1.153-2.332,2-3.809,2c-3.637,0-4.959,1.773-4.959,6.654c0,4.973-3.526,9.346-7.537,9.346c-1.363,0-2.999,0.886-3.695,2
	c-0.757,1.213-2.332,2-4,2s-3.242,0.787-4,2c-0.687,1.1-1.681,2-2.208,2c-0.528,0-0.42-0.54,0.24-1.2c1.553-1.553,1.553-8.048,0-9.6
	c-1.814-1.814-4.633-1.441-6.032,0.8c-1.094,1.752-2.332,2-10,2s-8.905,0.247-10,2c-0.952,1.525-2.332,2-5.809,2
	c-2.507,0-5.099,0.54-5.759,1.2c-0.934,0.933-1.467,0.933-2.4,0c-1.669-1.669-27.931-1.669-29.6,0c-0.66,0.66-1.2,2.46-1.2,4
	c0,2.692-0.191,2.8-4.991,2.8c-3.909,0-5.263,0.434-6.241,2c-0.721,1.153-2.332,2-3.809,2c-3.159,0-4.959,1.689-4.959,4.654
	c0,3.838-4.464,7.346-9.346,7.346c-2.34,0-4.794,0.54-5.454,1.2c-1.814,1.814-1.441,4.632,0.8,6.032c1.1,0.687,2,2.33,2,3.651
	c0,2.819,5.688,9.09,8.259,9.105c1.507,0.009,1.58,0.296,0.509,2.011c-0.757,1.213-2.332,2-4,2s-3.242,0.787-4,2
	c-0.721,1.153-2.332,2-3.809,2c-1.407,0-3.099,0.54-3.759,1.2c-0.934,0.933-1.467,0.933-2.4,0c-0.66-0.66-2.352-1.2-3.76-1.2
	c-1.476,0-3.088-0.847-3.808-2c-0.758-1.213-2.332-2-4-2s-3.243-0.787-4-2c-1.798-2.879-4.27-2.455-7.982,1.367l-3.25,3.346v13.635
	c0,12.553,0.159,13.734,2,14.885c1.109,0.692,2,2.332,2,3.682c0,1.755,2.785,5.188,10,12.328c6.721,6.651,10,10.628,10,12.127
	c0,3.626,1.944,4.631,8.959,4.631c5.477,0,6.766,0.33,7.809,2c0.758,1.213,2.332,2,4,2s3.243,0.787,4,2c0.758,1.213,2.332,2,4,2
	s3.243,0.787,4,2c1.095,1.752,2.332,2,10,2s8.906,0.247,10,2c1.214,1.943,0.999,2-7.519,2c-7.685,0-8.922-0.247-10.017-2
	c-0.758-1.213-2.332-2-4-2c-1.68,0-3.244-0.789-4.016-2.024c-1.197-1.917-2.125-2.011-17.383-1.75
	c-14.08,0.239-16.258,0.495-17.221,2.024c-1.905,3.023,0.427,5.207,5.939,5.562c3.415,0.221,5.248,0.886,6.204,2.25
	c1.165,1.664,2.584,1.938,10.06,1.938c7.619,0,8.857,0.249,9.951,2c0.758,1.213,2.332,2,4,2s3.243,0.787,4,2
	c1.039,1.664,2.332,2,7.695,2c5.573,0,6.791,0.345,8.991,2.545c1.4,1.4,2.546,3.646,2.546,4.992c0,1.363,0.886,2.999,2,3.695
	c1.268,0.791,2,2.332,2,4.208c0,2.302-0.267,2.692-1.2,1.76c-0.66-0.66-2.352-1.2-3.76-1.2c-1.476,0-3.088-0.847-3.808-2
	c-1.079-1.727-2.332-2-9.182-2c-4.363,0-8.211,0.45-8.551,1c-1.076,1.741-2.182,1.125-7.151-3.984l-4.849-4.984l-8.51-0.016
	c-7.417-0.014-8.67-0.272-9.758-2.016c-1.888-3.022-4.424-2.426-8.492,2c-2.426,2.638-4.537,4-6.201,4c-1.439,0-3.059,0.858-3.771,2
	c-0.757,1.213-2.332,2-4,2s-3.242,0.787-4,2c-0.864,1.385-2.332,2-4.768,2s-3.903-0.615-4.768-2c-0.688-1.1-2.142-2-3.232-2
	s-2.545,0.9-3.232,2c-0.687,1.1-1.797,2-2.466,2s-3.747-2.588-6.838-5.75c-4.532-4.637-5.267-5.819-3.792-6.107
	c3.152-0.617,4.328-2.264,4.328-6.065c0-4.324-1.431-6.077-4.96-6.077c-1.476,0-3.088-0.847-3.808-2
	c-1.432-2.292-8.016-2.816-10.032-0.8c-0.934,0.933-1.467,0.933-2.4,0c-0.66-0.66-2.199-1.2-3.421-1.2c-1.305,0-4.11-1.89-6.8-4.579
	c-3.992-3.992-4.579-5.12-4.579-8.8c0-2.321-0.54-4.761-1.2-5.421c-0.698-0.698-4.044-1.2-8-1.2c-6.685,0-6.8-0.045-6.8-2.644
	c0-1.63-1.247-3.927-3.25-5.989c-2.676-2.755-4.002-3.348-7.502-3.356c-3.604-0.009-4.787-0.577-7.75-3.719
	c-3.718-3.941-4.091-4.808-2.498-5.792c3.21-1.984-3.465-10.471-8.25-10.489l-2.75-0.011v-12.991c0-11.909-0.167-13.096-2-14.241
	c-1.825-1.14-2-2.332-2-13.652v-12.402l-3.25-3.346c-2.664-2.743-4.008-3.348-7.455-3.356c-4.83-0.013-9.295-3.546-9.295-7.356
	c0-2.897-1.786-4.654-4.731-4.654c-1.439,0-3.736-1.529-6.009-4l-3.678-4h-12.551c-11.467,0-12.658-0.173-13.799-2
	c-0.965-1.544-2.332-2-6-2s-5.036-0.456-6-2c-1.089-1.743-2.332-2-9.695-2c-7.716,0-8.666-0.22-10.992-2.546
	c-1.929-1.929-2.545-3.574-2.545-6.8c0-5.409-1.302-6.654-6.96-6.654c-3.476,0-4.855-0.475-5.808-2c-1.08-1.729-2.332-2-9.232-2
	s-8.152,0.271-9.232,2c-0.687,1.1-1.807,2-2.489,2s-3.837-2.698-7.01-5.995c-4.035-4.193-6.522-5.997-8.278-6
	c-1.422-0.003-3.05-0.871-3.758-2.005c-0.758-1.213-2.332-2-4-2s-3.243-0.787-4-2c-0.688-1.1-2.149-2-3.249-2
	c-3.266,0-0.179-3.843,3.376-4.202c6.01-0.609,6.069-6.93,0.072-7.636c-1.576-0.186-3.469-1.197-4.205-2.25
	c-0.737-1.052-2.404-1.912-3.704-1.912c-3.213,0-11.522-8.344-11.522-11.57c0-1.33-0.897-2.974-2-3.662c-1.213-0.757-2-2.332-2-4
	s-0.787-3.242-2-4c-1.13-0.705-2.005-2.341-2.011-3.758c-0.007-1.522-1.327-3.789-3.356-5.76c-2.918-2.835-4.021-3.25-8.633-3.25
	s-5.715,0.415-8.633,3.25c-3.822,3.713-4.246,6.185-1.367,7.982c1.198,0.748,2,2.332,2,3.951c0,1.647,0.855,3.302,2.189,4.236
	c1.204,0.844,1.936,1.788,1.625,2.1c-0.311,0.311-1.857-0.805-3.437-2.478c-3.629-3.845-5.151-3.82-8.881,0.143
	c-2.884,3.063-3.01,3.1-3.321,0.962c-0.179-1.223-1.191-2.764-2.25-3.425c-1.143-0.714-1.926-2.321-1.926-3.954
	c0-1.668-0.787-3.242-2-4c-3.549-2.216-2.51-4.615,2.148-4.96c4.803-0.356,7.027-2.714,5.244-5.558
	c-1.527-2.437-9.566-2.934-11.771-0.729c-1.495,1.495-1.621,1.437-1.621-0.75c0-3.916-1.827-4.771-10.191-4.771
	c-6.709,0-7.965,0.278-9.041,2c-0.71,1.138-2.332,2-3.762,2c-1.496,0-3.658,1.214-5.344,3c-2.998,3.176-4.157,3.625-5.162,2
	c-1.143-1.85-3.765-1.022-7.133,2.25c-3.332,3.236-3.346,3.291-3.346,12.75c0,9.399,0.034,9.533,3.239,12.635
	c1.781,1.724,4.105,3.299,5.165,3.5c1.713,0.325,1.574,0.696-1.25,3.362c-3.89,3.67-4.49,9.665-1.176,11.735
	c1.213,0.757,2,2.332,2,4s0.787,3.242,2,4c1.1,0.687,2,2.331,2,3.653c0,3.167,13.761,17.114,16.886,17.114
	c1.26,0,3.726,1.686,5.854,4c2.445,2.66,4.532,4,6.229,4c1.467,0,3.08,0.85,3.799,2c0.942,1.509,2.332,2,5.662,2
	c3.907,0,4.937,0.523,8.991,4.579c2.908,2.907,4.579,5.459,4.579,6.991c0,1.33,0.897,2.974,2,3.662c1.213,0.757,2,2.332,2,4
	s0.787,3.242,2,4c1.1,0.687,2,2.328,2,3.646c0,3.204,21.718,25.121,24.893,25.121c1.252,0,3.727,1.692,5.848,4
	c2.445,2.66,4.532,4,6.229,4c1.467,0,3.08,0.85,3.799,2c0.758,1.213,2.332,2,4,2s3.243,0.787,4,2c1.08,1.729,2.332,2,9.232,2
	s8.152-0.271,9.232-2c0.949-1.52,2.332-2,5.762-2c3.779,0,4.999-0.518,7.509-3.187l2.997-3.187l0.326,2.789
	c0.227,1.939-0.306,3.231-1.75,4.243c-1.23,0.862-2.076,2.555-2.076,4.157c0,1.619-0.802,3.203-2,3.951
	c-2.241,1.399-2.614,4.218-0.8,6.032c0.746,0.747,4.436,1.2,9.759,1.2c7.477,0,8.718,0.253,9.809,2c0.965,1.544,2.332,2,6,2
	s5.036,0.456,6,2c0.965,1.544,2.332,2,6,2s5.036,0.456,6,2c0.965,1.544,2.332,2,6,2s5.036,0.456,6,2c0.758,1.213,2.332,2,4,2
	s3.243,0.787,4,2c1.126,1.803,2.332,2,12.241,2h10.991v2.644c0,3.289,5.628,9.331,8.704,9.346c1.213,0.006,3.351,1.156,4.75,2.556
	c2.272,2.272,2.546,3.347,2.546,10c0,6.448-0.237,7.455-1.76,7.455c-0.968,0-2.321-0.9-3.008-2c-0.797-1.276-2.332-2-4.241-2
	c-2.567,0-2.991-0.375-2.991-2.644c0-1.63-1.247-3.927-3.25-5.989c-3.026-3.115-3.698-3.347-9.76-3.356
	c-5.419-0.009-6.719-0.346-7.758-2.011c-0.965-1.544-2.332-2-6-2s-5.036-0.456-6-2c-0.688-1.1-1.986-2-2.886-2
	c-0.9,0-4.946,3.31-8.992,7.354l-7.354,7.355v15.288v15.289l3.25,3.346c2.656,2.734,4.013,3.348,7.421,3.356
	c3.614,0.009,4.782,0.622,8.75,4.59c2.908,2.907,4.579,5.459,4.579,6.991c0,1.33,0.897,2.974,2,3.662c1.1,0.687,2,1.795,2,2.463
	c0,2.123-4.998,6.305-7.537,6.305c-1.363,0-2.999,0.886-3.695,2c-0.721,1.153-2.332,2-3.809,2c-3.857,0-4.959,1.819-4.959,8.191
	c0,4.709,0.374,6.025,2,7.041c1.424,0.889,2,2.332,2,5.008c0,3.451-0.23,3.76-2.8,3.76c-3.873,0-5.2,1.69-5.2,6.621
	c0,3.68-0.587,4.808-4.579,8.8c-3.653,3.654-5.27,4.579-8,4.579c-2.599,0-3.421-0.423-3.421-1.76c0-0.968,0.9-2.321,2-3.008
	c1.793-1.12,2-2.332,2-11.695c0-9.859,0.143-10.59,2.545-12.992c1.4-1.399,3.561-2.545,4.801-2.545c3.181,0,4.654-1.851,4.654-5.844
	c0-4.442-5.186-10.13-9.25-10.146c-2.385-0.01-2.75-0.408-2.75-3.002c0-1.909-0.724-3.444-2-4.241c-1.213-0.757-2-2.332-2-4
	s-0.787-3.242-2-4c-1.15-0.719-2-2.332-2-3.799c0-1.696-1.34-3.783-4-6.229c-2.638-2.426-4-4.537-4-6.201
	c0-1.439-0.858-3.059-2-3.771c-1.154-0.721-2-2.332-2-3.809c0-4.809-4.84-6.789-7.232-2.959c-1.725,2.762-7.812,2.762-9.535,0
	c-0.696-1.114-2.332-2-3.695-2c-3.035,0-7.529-4.337-7.561-7.296c-0.014-1.322-2.158-4.305-5.361-7.454
	c-4.435-4.361-5.943-5.25-8.918-5.25c-1.969,0-3.857,0.45-4.197,1c-1.005,1.625-2.164,1.176-5.162-2c-1.558-1.65-3.82-3-5.028-3
	c-1.424,0-4.969-2.816-10.069-8c-4.329-4.4-8.626-8-9.548-8c-0.921,0-2.237,0.9-2.925,2c-1.815,2.907-3.379,2.49-7.508-2
	c-3.029-3.295-4.335-4-7.409-4c-2.053,0-4.011,0.45-4.351,1c-1.005,1.625-2.164,1.176-5.162-2c-1.686-1.786-3.848-3-5.344-3
	c-1.43,0-3.052-0.862-3.762-2c-0.758-1.213-2.332-2-4-2s-3.243-0.787-4-2c-0.758-1.213-2.332-2-4-2s-3.243-0.787-4-2
	c-0.713-1.142-2.332-2-3.771-2c-1.664,0-3.775-1.362-6.201-4c-2.264-2.463-4.57-4-6-4s-3.735-1.537-6-4c-2.445-2.66-4.532-4-6.229-4
	c-1.467,0-3.08-0.85-3.799-2c-0.941-1.508-2.332-2-5.648-2c-4.087,0-4.866-0.468-10.991-6.593c-4.142-4.142-6.593-7.413-6.593-8.8
	c0-2.83-1.796-4.607-4.654-4.607c-2.904,0-7.346-4.437-7.346-7.337c0-1.34-1.612-3.729-4-5.923c-2.638-2.426-4-4.537-4-6.201
	c0-1.439-0.858-3.059-2-3.771c-1.508-0.941-2-2.332-2-5.653c0-4.141-0.441-4.846-7.354-11.76c-7.387-7.386-9.226-8.375-11.445-6.154
	c-0.934,0.933-1.467,0.933-2.4,0c-0.66-0.66-2.352-1.2-3.759-1.2c-1.477,0-3.089-0.847-3.809-2c-0.758-1.213-2.332-2-4-2
	s-3.243-0.787-4-2c-0.758-1.213-2.332-2-4-2s-3.243-0.787-4-2c-0.688-1.1-2.142-2-3.232-2s-2.545,0.9-3.232,2
	c-0.687,1.1-2.329,2-3.649,2c-3.1,0-21.118,17.729-21.118,20.78c0,2.921-8.558,11.22-11.57,11.22c-1.33,0-2.974,0.897-3.662,2
	c-0.757,1.213-2.332,2-4,2s-3.242,0.787-4,2c-0.687,1.1-2.328,2-3.646,2c-3.13,0-13.066,9.638-13.098,12.704
	c-0.031,2.959-4.525,7.296-7.561,7.296c-1.363,0-2.999,0.886-3.695,2c-0.964,1.544-2.332,2-6,2s-5.035,0.456-6,2
	c-0.687,1.1-1.933,2-2.768,2s-2.081-0.9-2.768-2c-0.965-1.544-2.332-2-6-2s-5.036-0.456-6-2c-0.965-1.544-2.332-2-6-2
	s-5.036-0.456-6-2c-1.049-1.68-2.332-2-8-2s-6.951-0.32-8-2c-1.152-1.846-2.332-2-15.232-2s-14.08,0.154-15.232,2
	c-0.757,1.213-2.332,2-4,2s-3.242,0.787-4,2c-0.705,1.13-2.34,2.005-3.758,2.011c-3.222,0.014-9.01,5.863-9.01,9.104
	c0,1.322-0.9,2.966-2,3.652c-1.213,0.758-2,2.332-2,4s-0.787,3.243-2,4c-2.809,1.755-2.809,8.71,0,10.465
	c1.668,1.041,2,2.332,2,7.762c0,6.02,0.24,6.738,3.176,9.509c2.822,2.664,2.961,3.037,1.25,3.354
	c-4.578,0.851-5.991,5.147-2.426,7.375c1.198,0.748,2,2.332,2,3.949c0,1.485,0.45,2.979,1,3.318c1.593,0.984,1.22,1.851-2.498,5.792
	c-2.218,2.351-4.41,3.708-5.991,3.708c-1.411,0-3.036,0.868-3.743,2c-0.695,1.113-2.332,2-3.692,2c-1.731,0-4.736,2.33-10.315,8
	l-7.872,8h-6.436c-5.353,0-6.646,0.337-7.685,2c-0.757,1.213-2.332,2-4,2s-3.242,0.787-4,2c-0.944,1.513-2.348,2.006-5.758,2.023
	c-4.115,0.021-4.969,0.489-9.76,5.361c-3.39,3.446-5.25,6.188-5.25,7.736c0,1.318-0.9,2.96-2,3.646c-1.11,0.693-2,2.332-2,3.685
	c0,1.722-2.345,4.743-8,10.308c-5.113,5.031-8,8.653-8,10.037c0,1.339-2.29,4.369-5.995,7.935c-4.193,4.035-5.997,6.522-6,8.278
	c-0.003,1.422-0.871,3.05-2.005,3.758c-1.213,0.758-2,2.332-2,4s-0.787,3.243-2,4c-1.841,1.15-2,2.332-2,14.885v13.635l3.25,3.346
	c1.971,2.029,4.237,3.35,5.76,3.356c3.355,0.015,5.649,3.5,3.798,5.771c-3.361,4.123-6.073,6.24-7.991,6.24
	c-3.057,0-12.765,9.872-12.793,13.01c-0.014,1.407-0.901,3.058-2.023,3.758c-1.213,0.758-2,2.332-2,4s-0.787,3.243-2,4
	c-1.213,0.758-2,2.332-2,4s-0.787,3.243-2,4c-2.292,1.432-2.816,8.016-0.8,10.032c0.934,0.934,0.098,1.2-3.76,1.2
	c-3.876,0-5.232-0.437-6.208-2c-0.688-1.1-1.981-2-2.877-2s-7.642,6.014-14.992,13.363c-13.098,13.099-13.363,13.451-13.363,17.76
	c0,3.395-0.482,4.697-2.118,5.719c-1.519,0.948-2.424,1.017-3.2,0.24c-0.595-0.596-3.598-1.082-6.673-1.082
	c-5.243,0-5.819,0.249-9.269,4c-4.129,4.49-5.692,4.907-7.508,2c-1.095-1.753-2.332-2-10-2s-8.906-0.248-10-2
	c-1.182-1.892-2.332-2-21.232-2s-20.051,0.108-21.232,2c-0.757,1.213-2.332,2-4,2s-3.242,0.787-4,2c-0.964,1.544-2.332,2-6,2
	s-5.035,0.456-6,2c-0.695,1.113-2.332,2-3.692,2c-1.731,0-4.736,2.33-10.315,8c-10.876,11.053-10.409,11.135-26.152-4.607
	l-12.608-12.608l-0.023-8.142l-0.023-8.143l-5.338-5.25c-3.447-3.39-6.188-5.25-7.736-5.25c-1.319,0-2.96-0.9-3.647-2
	c-1.134-1.816-2.332-2-13.032-2h-11.783l-3.677,4c-4.129,4.49-5.692,4.907-7.508,2c-0.964-1.544-2.332-2-6-2
	c-3.667,0-5.036-0.456-6-2c-1.098-1.759-2.332-2-10.24-2h-8.992v-3.76c0-2.676,0.576-4.119,2-5.008c1.212-0.758,2-2.332,2-4
	s0.788-3.243,2-4c1.213-0.758,2-2.332,2-4s0.788-3.243,2-4c2.567-1.604,2.567-4.861,0-6.465c-1.154-0.721-2-2.332-2-3.809
	c0-1.407-0.54-3.099-1.2-3.759c-0.934-0.934-0.934-1.467,0-2.4c0.66-0.66,1.2-2.352,1.2-3.76c0-1.476,0.846-3.088,2-3.808
	c5.629-3.516-0.55-15.199-8.05-15.222c-1.953-0.006-4.09,0.529-4.75,1.189c-0.934,0.933-1.2,0.757-1.2-0.791
	c0-1.096-1.8-3.646-4-5.669c-4.655-4.28-5.528-9.305-2-11.508c1.212-0.758,2-2.332,2-4s0.787-3.243,2-4
	c2.567-1.604,2.567-4.861,0-6.465c-3.037-1.896-2.586-4.766,0.75-4.778c3.461-0.014,9.25-5.712,9.25-9.105
	c0-1.321,0.9-2.965,2-3.651c1.142-0.713,2-2.332,2-3.771c0-1.664,1.362-3.775,4-6.201c2.66-2.445,4-4.532,4-6.229
	c0-1.467,0.849-3.08,2-3.799c1.679-1.049,2-2.332,2-8s0.321-6.952,2-8c1.679-1.049,2-2.332,2-8s0.321-6.952,2-8
	c2.93-1.83,2.93-12.635,0-14.465c-1.899-1.186-2-2.332-2-22.768s0.101-21.582,2-22.768c1.213-0.758,2-2.332,2-4s0.788-3.243,2-4
	c2.567-1.604,2.567-4.861,0-6.465c-1.134-0.708-2.002-2.336-2.005-3.758c-0.003-1.756-1.806-4.243-6-8.278
	c-5.896-5.674-5.995-5.859-5.995-11.25c0-5.333,0.076-5.481,2.791-5.481c1.977,0,3.864-1.167,6.469-4l3.678-4h10.331
	c11.248,0,12.731-0.606,12.731-5.2c0-2.442,0.382-2.8,2.992-2.8c1.908,0,3.444-0.724,4.24-2c1.004-1.607,2.332-2,6.768-2
	s5.764,0.393,6.768,2c0.757,1.213,2.332,2,4,2s3.243,0.787,4,2c1.194,1.912,2.332,2,26,2c23.667,0,24.805,0.088,26,2
	c0.965,1.544,2.332,2,6,2s5.036,0.456,6,2c0.965,1.544,2.332,2,6,2s5.036,0.456,6,2c1.049,1.68,2.332,2,8,2s6.952,0.32,8,2
	c1.08,1.729,2.332,2,9.232,2s8.152-0.271,9.232-2c0.687-1.1,1.933-2,2.768-2s2.081,0.9,2.768,2c0.688,1.1,2.142,2,3.232,2
	s2.545-0.9,3.232-2c0.687-1.1,1.933-2,2.768-2s2.081,0.9,2.768,2c0.758,1.213,2.332,2,4,2s3.243,0.787,4,2
	c0.688,1.1,2.142,2,3.232,2s2.545-0.9,3.232-2c1.816-2.909,11.719-2.909,13.535,0c1.114,1.783,2.332,2,11.232,2
	s10.118-0.217,11.232-2c0.946-1.517,2.339-2.003,5.758-2.011c3.793-0.009,5.026-0.542,7.76-3.356c1.837-1.891,3.25-4.391,3.25-5.749
	c0-1.321,0.9-2.965,2-3.651c1.68-1.049,2-2.332,2-8s0.321-6.952,2-8c1.68-1.049,2-2.332,2-8c0-5.645,0.324-6.954,1.979-7.987
	c1.851-1.156,1.997-2.548,2.25-21.417l0.271-20.181l2.997,3.176c5.258,5.574,8.506,3.75,8.498-4.773
	c-0.005-5.473-0.088-5.63-6-11.318l-5.995-5.769v-12.125v-12.125l-3.25-3.346c-1.971-2.029-4.237-3.35-5.76-3.356
	c-1.417-0.006-3.053-0.881-3.758-2.011c-0.696-1.114-2.332-2-3.695-2c-3.151,0-7.537-4.386-7.537-7.537c0-1.363-0.886-2.999-2-3.695
	c-1.385-0.864-2-2.332-2-4.768s0.615-3.903,2-4.768c3.156-1.972,2.354-4.34-3.384-9.982c-3.72-3.658-6.139-5.25-7.978-5.25
	c-3.231,0-3.621-2.905-0.639-4.768c3.83-2.393,1.85-7.232-2.959-7.232c-1.477,0-3.089-0.847-3.809-2c-0.95-1.521-2.332-2-5.771-2
	c-3.997,0-4.95-0.465-8.201-4c-2.445-2.66-4.532-4-6.229-4c-1.467,0-3.08-0.85-3.799-2c-0.965-1.544-2.332-2-6-2s-5.036-0.456-6-2
	c-1.016-1.626-2.332-2-7.041-2c-3.186,0-6.331,0.54-6.991,1.2c-0.934,0.933-1.2,0.713-1.2-0.991c0-1.206-0.9-2.754-2-3.441
	c-1.1-0.687-2-1.595-2-2.017c0-0.423,0.901-0.205,2.004,0.483c3.493,2.182,5.451-0.08,5.8-6.703
	c0.303-5.758,0.299-5.766-4.896-10.896c-4.655-4.598-4.971-5.169-3.016-5.459c1.201-0.179,2.725-1.191,3.386-2.25
	c1.681-2.69,7.793-2.643,9.489,0.074c0.91,1.456,2.332,2,5.232,2s4.322-0.544,5.232-2c0.964-1.544,2.332-2,6-2s5.035-0.456,6-2
	c0.687-1.1,1.79-2,2.452-2c0.661,0,4.745,3.6,9.075,8c4.329,4.4,8.626,8,9.548,8c0.921,0,2.237-0.9,2.925-2
	c0.72-1.154,2.332-2,3.809-2c1.407,0,3.099-0.54,3.759-1.2c0.934-0.933,1.467-0.933,2.4,0c1.814,1.814,4.633,1.44,6.032-0.8
	c1.596-2.556,3.939-2.556,5.535,0c1.016,1.626,2.332,2,7.041,2c3.186,0,6.331-0.54,6.991-1.2c1.814-1.814,1.441-4.633-0.8-6.032
	c-1.544-0.964-2-2.332-2-6s-0.456-5.035-2-6c-2.762-1.725-2.762-7.812,0-9.535c3.937-2.459,1.824-7.232-3.2-7.232
	c-2.6,0-2.8-0.286-2.8-4c0-3.715,0.2-4,2.8-4c1.54,0,3.34-0.54,4-1.2c0.934-0.933,1.2-0.346,1.2,2.644
	c0,2.983,0.728,4.593,3.25,7.189c3.713,3.822,6.185,4.246,7.982,1.367c0.864-1.385,2.332-2,4.768-2s3.903,0.615,4.768,2
	c0.965,1.544,2.332,2,6,2s5.036,0.456,6,2c0.894,1.43,2.316,1.993,4.991,1.977c3.186-0.02,4.521-0.816,8.991-5.361
	c5.666-5.762,6.371-7.898,3.25-9.848c-2.918-1.822-2.518-3.092,2.579-8.188c4.055-4.056,5.084-4.579,8.991-4.579
	c3.33,0,4.72-0.491,5.662-2c0.946-1.517,2.339-2.003,5.758-2.011c3.793-0.009,5.026-0.542,7.76-3.356
	c2.004-2.062,3.25-4.359,3.25-5.989c0-2.229,0.439-2.644,2.8-2.644c4.813,0,5.2-1.239,5.2-16.654c0-13.939,0.057-14.311,2.546-16.8
	c1.399-1.4,3.646-2.546,4.991-2.546c1.363,0,2.999-0.886,3.695-2c0.708-1.134,2.336-2.002,3.758-2.005
	c1.756-0.003,4.243-1.807,8.278-6c3.729-3.876,6.572-5.995,8.041-5.995c1.372,0,3.73-1.586,5.95-4l3.678-4h8.322h8.322l3.678-4
	c2.214-2.407,4.587-4.004,5.959-4.011c2.497-0.012,8.781-5.835,8.781-8.137c0-0.789-1.8-3.09-4-5.112
	c-4.654-4.28-5.528-9.305-2-11.508c1.544-0.965,2-2.332,2-6s0.456-5.036,2-6c1.213-0.758,2-2.332,2-4s0.787-3.243,2-4
	c1.51-0.943,2-2.332,2-5.672c0-4.275,0.333-4.751,10-14.318c7.705-7.625,10-10.509,10-12.568c0-2.527,0.264-2.674,4.8-2.674
	c2.641,0,5.34-0.54,6-1.2c0.934-0.934,1.467-0.934,2.4,0c1.814,1.814,4.633,1.441,6.032-0.8c0.757-1.213,2.332-2,4-2
	s3.242-0.787,4-2c1.596-2.556,3.939-2.556,5.535,0c1.399,2.241,4.218,2.614,6.032,0.8c0.698-0.698,1.2-4.044,1.2-8v-6.8h12h12v4.8
	c0,2.641,0.54,5.34,1.2,6c1.576,1.576,8.468,1.547,9.448-0.04c0.521-0.843,0.947-0.473,1.332,1.155
	c0.771,3.269,3.49,4.907,5.77,3.476c1.292-0.811,1.828-2.699,2.047-7.207c0.255-5.256,0.011-6.287-1.75-7.387
	c-2.973-1.856-2.721-7.032,0.499-10.252c2.185-2.185,3.432-2.545,8.8-2.545c9.132,0,11.223-3.083,5.654-8.338
	c-3.176-2.998-3.625-4.157-2-5.162c1.694-1.048,1.107-4.416-1-5.732c-1.153-0.721-2-2.332-2-3.809c0-1.407-0.54-3.099-1.2-3.759
	c-0.933-0.934-0.933-1.467,0-2.4c1.979-1.979,1.363-4.12-2.167-7.55c-2.062-2.004-4.359-3.25-5.989-3.25h-2.644v-14.991
	c0-13.909-0.145-15.082-2-16.241c-1.544-0.964-2-2.332-2-6s-0.456-5.035-2-6c-1.544-0.964-2-2.332-2-6s-0.456-5.035-2-6
	c-1.544-0.964-2-2.332-2-6s-0.456-5.035-2-6c-1.213-0.757-2-2.332-2-4s-0.787-3.242-2-4c-1.812-1.131-2-2.332-2-12.768
	s0.188-11.637,2-12.768c1.276-0.797,2-2.332,2-4.241c0-2.655,0.336-2.991,2.991-2.991c1.909,0,3.444-0.724,4.241-2
	c0.687-1.1,2.331-2,3.653-2c3.106,0,17.114-13.758,17.114-16.81c0-2.778,4.507-7.19,7.346-7.19c1.24,0,2.741-0.487,3.336-1.082
	c0.776-0.776,1.682-0.708,3.2,0.24c2.875,1.795,2.949,7.842,0.118,9.609c-1.799,1.123-2,2.332-2,12s-0.201,10.877-2,12
	c-3.156,1.972-2.354,4.34,3.385,9.982c5.21,5.124,5.478,5.25,11.177,5.25c4.541,0,5.572,0.267,4.639,1.2
	c-0.66,0.66-1.2,2.352-1.2,3.759c0,1.477-0.846,3.088-2,3.809c-1.213,0.758-2,2.332-2,4s-0.787,3.243-2,4c-1.213,0.758-2,2.332-2,4
	s-0.787,3.243-2,4c-1.213,0.758-2,2.332-2,4s-0.787,3.243-2,4c-1.142,0.713-2,2.332-2,3.771c0,1.664-1.362,3.775-4,6.201l-4,3.678
	v13.591c0,14.372,0.471,15.991,4.654,15.991c2.875,0,7.339,4.419,7.369,7.295c0.031,3.067,9.968,12.705,13.098,12.705
	c1.318,0,2.96,0.9,3.646,2c0.905,1.449,2.332,2,5.182,2c2.163,0,4.211-0.45,4.551-1c1.005-1.625,2.164-1.176,5.162,2
	c2.508,2.656,3.489,3,8.576,3c4.662,0,5.98-0.377,6.994-2c1.148-1.84,2.332-2,14.768-2s13.619,0.16,14.768,2
	c1.124,1.799,2.332,2,12,2s10.877,0.201,12,2c0.758,1.213,2.332,2,4,2s3.243,0.787,4,2c1.787,2.86,12.471,2.926,14.459,0.087
	c0.736-1.052,2.629-2.064,4.205-2.25c3.8-0.446,5.497-3.12,3.754-5.912c-1.486-2.379-1.39-2.542,5.644-9.588
	c2.716-2.722,5.228-4.337,6.741-4.337c1.33,0,2.974-0.897,3.662-2c0.964-1.544,2.332-2,6-2s5.035-0.456,6-2
	c0.687-1.1,2.33-2,3.651-2c3.242,0,9.092-5.788,9.105-9.01c0.006-1.418,0.881-3.053,2.011-3.758c1.276-0.797,2-2.332,2-4.241
	c0-2.596,0.364-2.992,2.75-2.996c2.05-0.004,4.22-1.532,8.519-6c3.729-3.876,6.572-5.995,8.041-5.995c1.372,0,3.73-1.586,5.95-4
	c2.426-2.638,4.537-4,6.201-4c1.439,0,3.059-0.858,3.771-2c0.889-1.424,2.332-2,5.008-2c3.43,0,3.762,0.242,3.783,2.75
	c0.029,3.598,9.571,13.25,13.098,13.25c1.318,0,2.96,0.9,3.646,2c0.758,1.213,2.332,2,4,2s3.243,0.787,4,2
	c0.894,1.43,2.315,1.993,4.991,1.977c3.185-0.02,4.521-0.816,8.991-5.361c4.62-4.697,5.25-5.832,5.25-9.458
	c0-3.727,0.572-4.67,5.995-9.889c6.034-5.806,7.015-7.859,4.805-10.068c-1.553-1.553-8.048-1.553-9.6,0
	c-0.66,0.66-1.2,0.871-1.2,0.469s1.8-2.386,4-4.409c2.2-2.022,4-4.573,4-5.669c0-1.548,0.267-1.725,1.2-0.791
	c0.66,0.66,3.697,1.195,6.75,1.189c4.973-0.01,5.888-0.358,8.8-3.356c3.21-3.305,3.25-3.463,3.25-12.98
	c0-8.553-0.225-9.775-2-10.885c-1.213-0.757-2-2.332-2-4s-0.787-3.242-2-4c-1.134-0.708-2.002-2.336-2.005-3.758
	c-0.003-1.756-1.807-4.243-6-8.278c-3.889-3.742-5.995-6.57-5.995-8.05c0-1.255-0.54-2.821-1.2-3.481
	c-0.933-0.934-0.933-1.467,0-2.4c2.083-2.083,1.323-4.269-2.8-8.06l-4-3.678v-11.291c0-10.207,0.191-11.41,2-12.539
	c1.792-1.12,2-2.332,2-11.677v-10.428l7.662-7.564c7.801-7.699,8.746-8.33,9.838-6.563c0.34,0.55,1.833,1,3.318,1
	c1.617,0,3.201,0.802,3.949,2c0.702,1.124,2.332,2,3.723,2c1.713,0,4.242,1.84,8.241,5.995c4.035,4.193,6.522,5.997,8.278,6
	c1.422,0.003,3.05,0.871,3.758,2.005c1.755,2.809,8.71,2.809,10.465,0c1.091-1.747,2.332-2,9.808-2c9.634,0,10.96-0.707,10.96-5.844
	c0-4.442-5.186-10.13-9.25-10.146c-2.736-0.011-2.75-0.044-2.75-7.002c0-5.909-0.31-7.186-2-8.241c-1.213-0.757-2-2.332-2-4
	s-0.787-3.242-2-4c-1.544-0.964-2-2.332-2-6s-0.456-5.035-2-6c-1.747-1.091-2-2.332-2-9.809c0-9.685-0.696-10.959-5.991-10.959
	c-2.91,0-4.289,0.759-7.269,4c-2.023,2.2-4.122,4-4.664,4c-1.937,0-6.076-5.135-6.076-7.537c0-1.363-0.886-2.999-2-3.695
	c-1.544-0.964-2-2.332-2-6s-0.456-5.035-2-6c-3.176-1.982-2.836-10.841,0.545-14.223c1.4-1.399,3.561-2.545,4.801-2.545
	c2.858,0,4.654-1.777,4.654-4.607c0-3.131,12.414-15.393,15.584-15.393c1.319,0,2.961-0.9,3.648-2c0.757-1.213,2.332-2,4-2
	s3.242-0.787,4-2c0.757-1.213,2.332-2,4-2s3.242-0.787,4-2c1.724-2.762,7.811-2.762,9.535,0c1.83,2.93,12.635,2.93,14.465,0
	c0.705-1.13,2.34-2.005,3.758-2.011c1.522-0.007,3.789-1.327,5.76-3.356c3.005-3.093,3.25-3.847,3.25-9.989
	c0-6.609,0.015-6.644,2.8-6.644c3.22,0,5.2-1.603,5.2-4.209c0-1.559,0.276-1.636,2.004-0.557c2.715,1.695,5.392-0.049,5.834-3.803
	c0.185-1.576,1.197-3.469,2.25-4.205c2.168-1.52,2.491-4.248,0.712-6.026c-0.933-0.934-0.713-1.2,0.991-1.2
	c1.206,0,2.754-0.9,3.441-2c0.687-1.1,1.932-2,2.768-2c0.835,0,2.081,0.9,2.768,2c2.104,3.368,8.04,2.691,11.982-1.367
	c5.24-5.395,4.261-12.633-1.71-12.633c-1.476,0-3.088-0.847-3.808-2c-1.755-2.809-8.71-2.809-10.465,0c-0.721,1.153-2.332,2-3.809,2
	c-1.407,0-3.099,0.54-3.759,1.2c-0.934,0.933-1.467,0.933-2.4,0c-0.66-0.66-3.114-1.2-5.454-1.2c-4.805,0-9.346-3.493-9.346-7.189
	c0-2.557-5.833-8.785-8.241-8.8c-0.958-0.006-2.304,0.89-2.991,1.989c-0.952,1.525-2.332,2-5.809,2c-2.507,0-5.099,0.54-5.759,1.2
	c-0.698,0.698-1.2,4.044-1.2,8v6.8h-8.991c-7.909,0-9.143,0.241-10.241,2c-0.952,1.525-2.332,2-5.809,2
	c-5.176,0-6.959,1.271-6.959,4.959c0,1.477-0.847,3.089-2,3.809c-1.276,0.797-2,2.332-2,4.241c0,2.594-0.365,2.992-2.75,3.002
	c-3.612,0.014-9.25,5.71-9.25,9.346c0,2.229-0.439,2.644-2.8,2.644c-3.483,0-5.2,1.638-5.2,4.959c0,1.477-0.847,3.089-2,3.809
	c-1.276,0.797-2,2.332-2,4.241c0,2.607-0.358,2.991-2.791,2.991c-1.977,0-3.864,1.167-6.469,4c-3.25,3.535-4.204,4-8.201,4
	c-3.439,0-4.821,0.479-5.771,2c-1.596,2.556-3.939,2.556-5.535,0c-1.755-2.809-8.71-2.809-10.465,0c-0.687,1.1-2.04,2-3.008,2
	c-1.507,0-1.76-0.977-1.76-6.8c0-3.956-0.502-7.302-1.2-8c-0.776-0.777-4.805-1.2-11.421-1.2h-10.221l-4.579-4.579
	c-2.908-2.908-4.579-5.459-4.579-6.991c0-1.33-0.897-2.974-2-3.662c-1.851-1.155-2-2.335-2.005-15.758l-0.005-14.51l-5.995-5.769
	c-5.491-5.284-5.995-6.128-5.995-10.041c0-3.705-0.531-4.762-4-7.95c-3.482-3.202-4-4.237-4-8c0-3.764-0.518-4.799-4-8
	c-4.654-4.28-5.528-9.305-2-11.508c1.213-0.758,2-2.332,2-4s0.787-3.243,2-4c1.213-0.758,2-2.332,2-4s0.787-3.243,2-4s2-2.332,2-4
	s0.787-3.243,2-4c1.544-0.964,2-2.332,2-6s0.456-5.036,2-6c1.213-0.757,2-2.332,2-4s0.787-3.243,2-4s2-2.332,2-4s0.787-3.243,2-4
	c1.544-0.964,2-2.332,2-6s0.456-5.036,2-6c1.68-1.048,2-2.332,2-8s0.321-6.951,2-8c1.213-0.757,2-2.332,2-4s0.787-3.243,2-4
	c1.744-1.089,2-2.332,2-9.722v-8.473l5.995-5.769c3.298-3.173,5.992-6.443,5.989-7.269c-0.009-2.216-6.367-8-8.795-8
	c-2.839,0-7.189-4.532-7.189-7.489c0-1.319-0.86-3-1.912-3.738c-1.053-0.736-2.065-2.629-2.25-4.206
	c-0.45-3.822-3.122-5.496-5.952-3.729c-1.521,0.95-2.428,1.019-3.204,0.243c-0.651-0.652-5.674-1.08-12.632-1.077l-11.55,0.005
	l-5.769,5.995c-3.173,3.297-6.327,5.995-7.01,5.995s-1.803-0.9-2.489-2c-0.761-1.218-2.332-2-4.019-2c-1.532,0-3.534-0.894-4.481-2
	c-2.064-2.411-3.093-2.497-5.161-0.429c-2.067,2.068-1.982,3.096,0.429,5.161c1.106,0.947,2,2.95,2,4.482
	c0,1.686,0.782,3.258,2,4.018c2.556,1.596,2.556,3.94,0,5.536c-1.213,0.757-2,2.332-2,4s-0.787,3.243-2,4
	c-2.809,1.754-2.809,8.71,0,10.464c2.762,1.725,2.762,7.812,0,9.536c-1.721,1.075-1.999,2.329-1.995,8.99l0.005,7.742l5.995,5.769
	c3.297,3.173,5.995,6.327,5.995,7.01c0,0.682-0.9,1.803-2,2.49c-1.544,0.964-2,2.332-2,6s-0.456,5.036-2,6s-2,2.332-2,6
	s-0.456,5.036-2,6c-1.11,0.693-2,2.332-2,3.684c0,1.721-2.345,4.743-8,10.307c-5.67,5.58-8,8.584-8,10.316
	c0,1.36-0.887,2.997-2,3.692c-1.275,0.797-2,2.332-2,4.241c0,2.609-0.357,2.991-2.8,2.991c-3.483,0-5.2,1.638-5.2,4.959
	c0,1.477-0.847,3.089-2,3.809c-2.292,1.432-2.816,8.016-0.8,10.032c0.933,0.934,0.933,1.467,0,2.4c-0.66,0.66-1.2,2.352-1.2,3.759
	c0,1.477-0.847,3.089-2,3.809c-1.213,0.758-2,2.332-2,4s-0.787,3.243-2,4c-1.729,1.08-2,2.332-2,9.232s0.271,8.152,2,9.232
	c1.772,1.106,2,2.332,2,10.768s-0.228,9.661-2,10.768c-2.809,1.755-2.809,8.71,0,10.465c1.213,0.757,2,2.332,2,4s0.787,3.242,2,4
	c1.544,0.964,2,2.332,2,6s0.456,5.035,2,6c1.122,0.7,2.01,2.351,2.023,3.758c0.015,1.692,1.761,4.219,5.361,7.76
	c4.697,4.62,5.832,5.25,9.458,5.25c3.727,0,4.67,0.572,9.889,5.995c4.035,4.193,6.522,5.997,8.278,6
	c1.422,0.003,3.05,0.871,3.758,2.005c0.696,1.114,2.332,2,3.695,2c5.934,0,10.206,9.853,5.537,12.768c-1.213,0.758-2,2.332-2,4
	s-0.787,3.243-2,4c-1.213,0.758-2,2.332-2,4s-0.787,3.243-2,4c-2.809,1.755-2.809,8.71,0,10.465c1.624,1.014,2,2.332,2,7.008
	c0,5.561-0.092,5.76-2.644,5.76c-3.636,0-9.332,5.638-9.346,9.25c-0.009,2.304-0.439,2.75-2.654,2.75
	c-1.63,0-3.927,1.246-5.989,3.25c-3.024,2.938-3.347,3.801-3.356,8.991c-0.009,4.666,0.364,5.976,1.989,6.991
	c1.753,1.094,2,2.332,2,10s0.247,8.905,2,10c3.528,2.203,2.654,7.228-2,11.508c-3.313,3.046-4,4.326-4,7.46
	c0,2.7,0.572,4.141,2,5.032c1.753,1.094,2,2.332,2,10s0.247,8.905,2,10c1.772,1.106,2,2.332,2,10.768s-0.228,9.661-2,10.768
	c-1.213,0.758-2,2.332-2,4s-0.787,3.243-2,4c-1.513,0.945-2,2.332-2,5.695c0,6.187-3.351,9.537-9.537,9.537
	c-3.363,0-4.75,0.487-5.695,2c-0.952,1.525-2.332,2-5.808,2c-5.088,0-6.96,1.272-6.96,4.731c0,1.439-1.529,3.736-4,6.009
	c-5.192,4.773-5.526,9.325-1,13.598c1.65,1.558,3,3.205,3,3.662s-1.35,2.104-3,3.662c-1.921,1.813-3,3.821-3,5.585
	c0,2.741-0.029,2.753-6.991,2.753c-5.909,0-7.186,0.31-8.241,2c-0.976,1.563-2.332,2-6.208,2c-3.857,0-4.692-0.267-3.76-1.2
	c0.66-0.66,1.2-2.352,1.2-3.759c0-1.477,0.847-3.089,2-3.809c3.156-1.972,2.354-4.34-3.384-9.982c-3.72-3.658-6.139-5.25-7.978-5.25
	c-2.253,0-2.639-0.43-2.639-2.941c0-1.617-0.558-3.285-1.24-3.707c-0.843-0.521-0.473-0.947,1.156-1.332
	c3.48-0.821,4.894-3.493,3.244-6.134c-0.95-1.521-1.019-2.428-0.242-3.204c1.707-1.707,1.266-4.55-0.918-5.914
	c-1.15-0.719-2-2.332-2-3.799c0-1.696-1.34-3.783-4-6.229c-2.471-2.272-4-4.569-4-6.009c0-2.945-1.757-4.731-4.654-4.731
	c-2.99,0-7.346-4.469-7.346-7.537c0-1.363-0.886-2.999-2-3.695c-1.15-0.719-2-2.332-2-3.799c0-1.696-1.34-3.783-4-6.229
	c-2.638-2.426-4-4.537-4-6.201c0-1.439-0.858-3.059-2-3.771c-1.607-1.004-2-2.332-2-6.768s0.393-5.764,2-6.768
	c2.809-1.755,2.809-8.71,0-10.465c-1.525-0.952-2-2.332-2-5.809c0-2.507-0.54-5.099-1.2-5.759c-1.814-1.814-4.633-1.441-6.032,0.8
	c-0.72,1.153-2.332,2-3.808,2c-1.408,0-3.1,0.54-3.76,1.2c-0.934,0.933-1.2,0.755-1.2-0.8c0-1.101-0.54-2.54-1.2-3.2
	c-0.933-0.934-0.933-1.467,0-2.4c2.017-2.017,1.492-8.601-0.8-10.032c-1.747-1.091-2-2.332-2-9.809c0-5.323-0.453-9.013-1.2-9.759
	c-0.698-0.698-4.044-1.2-8-1.2h-6.8v-6.991c0-5.909-0.31-7.186-2-8.241c-1.747-1.091-2-2.332-2-9.809
	c0-11.744-2.334-13.828-8.633-7.709c-2.814,2.733-3.348,3.967-3.356,7.76c-0.008,3.419-0.494,4.812-2.011,5.758
	c-1.456,0.91-2,2.332-2,5.232s0.544,4.322,2,5.232c1.154,0.72,2,2.332,2,3.809c0,1.407,0.54,3.099,1.2,3.759
	c0.934,0.934,0.934,1.467,0,2.4c-0.66,0.66-1.2,2.214-1.2,3.454c0,2.836-4.411,7.346-7.184,7.346
	c-2.825,0-12.764,9.861-12.793,12.693c-0.016,1.402-2.911,5.035-8.023,10.066c-5.67,5.579-8,8.584-8,10.315
	c0,1.36-0.887,2.997-2,3.692c-1.213,0.758-2,2.332-2,4c0,3.223-3.539,6.094-5.318,4.314c-1.707-1.707-4.55-1.266-5.914,0.918
	c-0.964,1.544-2.332,2-6,2s-5.035,0.456-6,2c-2.203,3.528-7.228,2.654-11.508-2c-3.791-4.123-5.977-4.883-8.06-2.8
	c-0.66,0.66-1.2,0.76-1.2,0.222c0-0.537,0.9-1.748,2-2.689c2.411-2.064,2.496-3.093,0.429-5.161c-1.952-1.952-2.886-1.972-4.758-0.1
	c-1.296,1.297-1.618,1.297-2.694,0c-0.672-0.81-2.271-1.472-3.554-1.472c-1.282,0-3.478-1.146-4.877-2.546
	c-2.105-2.104-2.546-3.489-2.546-8c0-5.307,0.075-5.454,2.8-5.454c5.024,0,7.137-4.773,3.2-7.232c-2.907-1.815-2.491-3.379,2-7.508
	c4.426-4.068,5.022-6.604,2-8.492c-1.1-0.687-2-1.94-2-2.786c0-0.845,0.9-2.308,2-3.249c2.411-2.064,2.496-3.093,0.429-5.161
	c-2.067-2.067-2.967-1.983-5.27,0.488c-1.523,1.636-2.904,1.996-6.703,1.75l-4.785-0.31l5.149-5c5.547-5.387,6.325-7.768,3.18-9.732
	c-2.762-1.725-2.762-7.812,0-9.535c1.429-0.893,2-2.332,2-5.041c0-4.434-1.408-6.191-4.959-6.191c-1.477,0-3.089-0.847-3.809-2
	c-1.364-2.184-4.207-2.625-5.914-0.918c-1.461,1.461-5.318-0.949-5.318-3.322c0-1.512,0.985-1.76,6.991-1.76
	c5.909,0,7.186-0.31,8.241-2c1.106-1.772,2.332-2,10.768-2s9.661,0.228,10.768,2c1.399,2.241,4.218,2.614,6.032,0.8
	c1.635-1.634,1.635-19.966,0-21.6c-0.66-0.66-2.797-1.198-4.75-1.195c-3.027,0.004-4.398,0.887-9.318,6l-5.769,5.995h-9.481h-9.481
	v-2.8c0-3.554-1.646-5.2-5.2-5.2h-2.8v-18v-18h8.943c7.674,0,9.134-0.271,10.283-1.913c0.736-1.052,2.629-2.064,4.205-2.25
	c3.601-0.423,5.51-3.119,3.957-5.587c-0.909-1.444-2.869-1.8-11.231-2.035c-9.789-0.275-10.089-0.351-8.903-2.25
	c0.701-1.122,2.325-1.965,3.787-1.965c3.322,0,4.959-1.717,4.959-5.2c0-2.742,0.118-2.8,5.76-2.8c4.676,0,5.994,0.376,7.008,2
	c1.798,2.879,4.27,2.455,7.982-1.367c4.021-4.14,4.05-5.385,0.208-9.011c-1.673-1.579-2.788-3.126-2.478-3.437
	c0.312-0.311,1.256,0.421,2.1,1.625c1.691,2.416,4.368,2.842,6.22,0.989c0.66-0.66,1.2-3.649,1.2-6.644
	c0-4.788-0.391-5.846-3.25-8.789c-1.787-1.84-4.128-3.351-5.2-3.356c-1.517-0.009-1.683-0.277-0.75-1.211
	c0.934-0.934,1.467-0.934,2.4,0c2.083,2.083,4.269,1.323,8.06-2.8c4.13-4.491,5.692-4.907,7.508-2
	c1.399,2.241,4.218,2.614,6.032,0.8c1.553-1.553,1.553-8.048,0-9.6c-0.933-0.934-0.933-1.467,0-2.4c0.66-0.66,1.2-2.215,1.2-3.454
	c0-2.486,4.289-7.346,6.482-7.346c0.827,0,1.518,1.276,1.704,3.149c0.634,6.366,6.993,6.366,7.627,0
	c0.289-2.908,0.597-3.149,4.01-3.149c2.612,0,4.062,0.586,4.944,2c1.604,2.567,4.861,2.567,6.465,0c0.687-1.1,2.33-2,3.651-2
	c3.242,0,9.092-5.788,9.105-9.01c0.006-1.418,0.881-3.053,2.011-3.758c1.1-0.688,2-2.142,2-3.232s-0.9-2.545-2-3.232
	c-1.1-0.687-2-1.595-2-2.017c0-0.423,0.901-0.205,2.004,0.483c2.702,1.688,5.34-0.021,5.996-3.884c0.275-1.619,1.175-3.724,2-4.679
	c1.946-2.252,6.516-6.818,8.468-8.461c1.94-1.633,1.931-2.669-0.039-4.64c-1.897-1.897-3.006-1.979-4.405-0.321
	c-4.771,5.652-6.172,6.75-8.625,6.75c-1.988,0-4.102,1.498-8.048,5.704c-2.942,3.137-5.351,6.513-5.351,7.502
	s-1.688,3.394-3.75,5.345c-3.173,3-3.805,3.269-4.107,1.747c-0.197-0.988-0.83-2.38-1.408-3.09c-0.739-0.911-0.708-1.635,0.108-2.45
	c0.637-0.637,1.157-3.21,1.157-5.717c0-3.477,0.475-4.856,2-5.809c1.213-0.758,2-2.332,2-4s0.787-3.243,2-4
	c1.276-0.797,2-2.332,2-4.241c0-2.907,0.137-2.992,4.8-2.992c5.968,0,7.2-1.191,7.2-6.959c0-3.477,0.475-4.856,2-5.809
	c2.292-1.431,2.816-8.015,0.8-10.032c-0.933-0.934-0.791-1.2,0.642-1.2c2.158,0,20.559-18.042,20.559-20.159
	c0-2.258-2.143-3.841-5.2-3.841c-3.384,0-3.863-2.854-0.8-4.768c1.1-0.687,2-2.141,2-3.232s-0.9-2.545-2-3.232
	c-1.385-0.865-2-2.332-2-4.768s0.615-3.903,2-4.768c1.213-0.757,2-2.332,2-4s0.787-3.243,2-4c2.107-1.316,2.694-4.685,1-5.732
	c-1.741-1.076-1.125-2.181,3.984-7.152c7.196-7,6.49-10.348-2.185-10.348c-3.914,0-4.8-0.325-4.8-1.759c0-0.968,0.9-2.322,2-3.009
	c1.746-1.09,2-2.332,2-9.771v-8.522l4-3.678c2.833-2.604,4-4.492,4-6.469c0-2.433,0.384-2.791,2.991-2.791
	c1.909,0,3.444-0.724,4.241-2c1.043-1.67,2.332-2,7.809-2c9.632,0,11.561-2.953,5.667-8.677c-2.31-2.243-4.418-3.271-7.176-3.5
	l-3.905-0.323l3.187-2.997c2.669-2.51,3.187-3.73,3.187-7.51c0-3.43,0.48-4.812,2-5.762c1.429-0.892,2-2.332,2-5.041
	c0-4.513-1.41-6.191-5.2-6.191c-2.133,0-2.8-0.476-2.8-2c0-2.842,6.834-2.842,9.268,0c2.064,2.411,3.093,2.497,5.161,0.429
	c2.067-2.068,1.982-3.096-0.429-5.161c-4.332-3.709-0.542-8.458,7.398-9.268c3.176-0.324,5.284-1.115,5.995-2.25
	c1.547-2.469-0.364-5.164-3.962-5.587c-1.576-0.186-3.469-1.198-4.205-2.25c-1.723-2.459-4.738-2.448-6.47,0.024
	c-0.956,1.365-2.788,2.029-6.204,2.25c-3.284,0.212-5.202,0.877-5.945,2.063c-1.502,2.396,0.327,5.158,3.682,5.561
	c2.46,0.295,2.506,0.406,0.927,2.25c-2.133,2.491-4.404,2.468-5.983-0.061c-1.432-2.292-8.016-2.816-10.032-0.8
	c-0.934,0.933-1.467,0.933-2.4,0c-0.933-0.934-0.933-1.467,0-2.4c1.945-1.945,1.396-4.122-1.8-7.138
	c-3.176-2.998-3.625-4.158-2-5.162c0.55-0.34,1-1.941,1-3.559c0-2.914,0.053-2.941,5.76-2.941c4.676,0,5.994,0.376,7.008,2
	c1.316,2.107,4.685,2.695,5.732,1c1.005-1.625,2.164-1.176,5.162,2c3.291,3.487,5.81,3.819,7.57,1c0.72-1.154,2.332-2,3.809-2
	c3.254,0,4.959-1.705,4.959-4.959c0-1.477,0.847-3.088,2-3.809c2.741-1.711,2.798-8.56,0.088-10.458
	c-1.053-0.737-2.064-2.629-2.25-4.206c-0.442-3.753-3.119-5.498-5.834-3.802c-1.603,1.001-2.404,1.001-4.004,0.002
	c-2.926-1.828-2.648-7.029,0.546-10.223c3.078-3.079,4.565-3.199,6.247-0.505c1.14,1.824,2.13,2.009,9.385,1.75
	c6.424-0.229,8.34-0.653,9.21-2.037c0.818-1.302,0.761-2.287-0.228-3.868c-0.95-1.521-1.019-2.428-0.242-3.204
	c0.595-0.595,1.082-2.234,1.082-3.642c0-1.477,0.847-3.088,2-3.809c1.132-0.707,2-2.332,2-3.743c0-1.584,1.368-3.789,3.75-6.043
	c3.415-3.232,3.778-3.367,4.068-1.507c0.175,1.124,1.159,2.632,2.188,3.352c1.29,0.904,1.965,2.809,2.182,6.157
	c0.355,5.512,2.539,7.844,5.562,5.94c1.455-0.916,1.798-2.891,2.033-11.733c0.263-9.829,0.474-10.821,2.796-13.144
	c3.161-3.161,8.371-3.422,10.188-0.512c1.399,2.241,4.218,2.615,6.032,0.8c1.559-1.558,1.559-12.042,0-13.6
	c-0.66-0.66-2.352-1.2-3.759-1.2c-3.041,0-5.836-3.605-4.123-5.318c0.776-0.776,1.421-0.743,2.282,0.118
	c0.66,0.66,2.352,1.2,3.76,1.2c1.476,0,3.088,0.846,3.808,2c0.758,1.213,2.332,2,4,2s3.243,0.787,4,2
	c1.399,2.241,4.218,2.615,6.032,0.8c2.017-2.017,1.492-8.601-0.8-10.032c-2.762-1.725-2.762-7.812,0-9.536c1.213-0.757,2-2.332,2-4
	s0.787-3.243,2-4c1.803-1.126,2-2.332,2-12.24V43.785h2.753c1.772,0,3.777-1.084,5.625-3.042c1.579-1.673,3.12-2.793,3.424-2.49
	c0.304,0.304-0.441,1.479-1.655,2.61c-2.068,1.927-2.19,2.792-1.928,13.632c0.236,9.735,0.559,11.75,2.027,12.675
	c1.294,0.814,2.267,0.775,3.75-0.151c1.103-0.688,2.004-0.906,2.004-0.483s-0.9,1.33-2,2.017c-2.292,1.431-2.816,8.015-0.8,10.032
	c1.553,1.553,8.047,1.553,9.6,0c0.848-0.847,1.2-6.657,1.2-19.759c0-17.477,0.117-18.632,2-19.809
	c1.715-1.071,2.002-0.998,2.011,0.51c0.013,2.097,6.09,8.258,8.146,8.258c2.941,0,3.844-2.393,3.844-10.191
	c0-6.708-0.278-7.965-2-9.041c-2.653-1.657-2.521-3.155,0.546-6.223c1.744-1.745,3.632-2.545,6-2.545h3.454v10.8
	c0,12.033,0.517,13.2,5.844,13.2c5.019,0,10.131-5.161,10.146-10.242c0.008-2.666-0.564-4.1-1.989-4.99
	c-2.653-1.657-2.521-3.155,0.546-6.223s4.565-3.199,6.222-0.545c1.604,2.567,4.861,2.567,6.465,0c1.596-2.556,3.939-2.556,5.535,0
	c0.758,1.213,2.332,2,4,2s3.243,0.787,4,2c0.797,1.276,2.332,2,4.241,2c3.566,0,4.148,2.796,0.991,4.768
	c-1.114,0.696-2,2.332-2,3.695c0,4.011-4.373,7.537-9.346,7.537c-5.195,0-6.654,1.315-6.654,6c0,4.25,1.447,6,4.96,6
	c1.476,0,3.088,0.846,3.808,2c1.83,2.93,12.635,2.93,14.465,0c1.121-1.795,2.332-2,11.809-2c11.489,0,12.959-0.59,12.959-5.2
	c0-2.133,0.477-2.8,2-2.8s2,0.667,2,2.8c0,4.37,1.627,5.2,10.191,5.2c6.709,0,7.965-0.278,9.041-2c0.687-1.1,2.04-2,3.008-2
	c1.436,0,1.76,0.885,1.76,4.8c0,9.063,3.355,9.419,11.269,1.195c5.363-5.573,6.083-5.995,10.241-5.995c3.391,0,4.775-0.484,5.723-2
	c0.757-1.213,2.332-2,4-2s3.242-0.787,4-2c1.18-1.889,2.332-2,20.768-2s19.588,0.111,20.768,2c1.157,1.853,2.332,2,16,2
	s14.843,0.147,16,2c1.113,1.783,2.332,2,11.232,2s10.118-0.217,11.232-2c1.596-2.556,3.939-2.556,5.535,0c0.758,1.213,2.332,2,4,2
	s3.243,0.787,4,2c1.604,2.567,4.861,2.567,6.465,0c0.687-1.1,1.807-2,2.489-2s3.837,2.698,7.01,5.995
	c3.617,3.759,6.591,5.997,7.973,6c2.95,0.006,7.296,4.499,7.296,7.542c0,1.363,0.886,2.999,2,3.695c1.84,1.149,2,2.332,2,14.768
	s-0.16,13.619-2,14.768c-1.213,0.757-2,2.332-2,4s-0.787,3.243-2,4c-1.114,0.696-2,2.332-2,3.695c0,3.041-4.343,7.533-7.296,7.548
	c-3.076,0.015-8.704,6.057-8.704,9.346c0,2.606-0.1,2.644-6.991,2.644c-5.909,0-7.186,0.31-8.241,2c-1.157,1.853-2.332,2-16,2
	s-14.843,0.147-16,2c-1.094,1.752-2.332,2-10,2s-8.905,0.248-10,2c-1.596,2.556-3.939,2.556-5.535,0
	c-1.888-3.022-4.424-2.425-8.492,2c-3.401,3.699-4.076,4-8.969,4c-4.237,0-5.543-0.405-6.562-2.035
	c-1.162-1.862-2.128-2.01-11.384-1.75c-8.347,0.235-10.306,0.59-11.215,2.035c-1.534,2.438,0.342,5.161,3.841,5.576
	c1.644,0.195,4.201,1.904,6.357,4.25c2.388,2.597,4.471,3.924,6.159,3.924c1.467,0,3.08,0.849,3.799,2c0.758,1.213,2.332,2,4,2
	s3.243,0.787,4,2c0.758,1.213,2.332,2,4,2s3.243,0.787,4,2c1.049,1.679,2.332,2,8,2s6.951,0.321,8,2c0.965,1.544,2.332,2,6,2
	s5.036,0.456,6,2c0.797,1.276,2.332,2,4.241,2h2.991v8.673v8.673l10,9.896c6.272,6.208,10,10.669,10,11.97
	c0,2.962,5.955,8.764,9.01,8.776c1.417,0.006,3.053,0.881,3.758,2.011c0.758,1.213,2.332,2,4,2c1.693,0,3.245,0.791,4.035,2.055
	c1.02,1.633,2.128,1.993,5.389,1.75c4.928-0.366,6.97-2.716,5.043-5.802c-0.688-1.102-0.906-2.003-0.483-2.003
	c0.422,0,1.33,0.9,2.017,2c0.758,1.213,2.332,2,4,2s3.243,0.787,4,2c1.151,1.843,2.332,2,15.041,2
	c14.635,0,16.191-0.455,16.191-4.731c0-1.44,1.529-3.737,4-6.009c3.238-2.977,4-4.36,4-7.26c0-2.9-0.762-4.283-4-7.26
	c-2.471-2.272-4-4.569-4-6.009c0-3.874-1.848-4.731-10.191-4.731c-6.709,0-7.965,0.278-9.041,2c-1.596,2.556-3.939,2.556-5.535,0
	c-0.965-1.544-2.332-2-6-2c-3.757,0-5.028-0.443-6.074-2.118c-0.948-1.519-1.017-2.424-0.24-3.2
	c1.458-1.458,1.377-7.987-0.118-9.482c-0.933-0.934,0.285-1.2,5.481-1.2h6.682l5.769,5.995c3.173,3.297,6.466,5.998,7.318,6
	c2.359,0.007,3.95-2.085,3.95-5.195c0-2.442,0.382-2.8,2.991-2.8c1.909,0,3.444-0.724,4.241-2c1.091-1.747,2.332-2,9.808-2
	c9.374,0,10.96-0.752,10.96-5.2c0-2.692,0.191-2.8,4.991-2.8c3.909,0,5.263-0.434,6.241-2c1.724-2.761,7.811-2.761,9.535,0
	c1.755,2.809,8.71,2.809,10.465,0c0.964-1.544,2.332-2,6-2s5.035-0.456,6-2c0.72-1.154,2.332-2,3.808-2
	c2.843,0,4.96-1.641,4.96-3.844c0-2.452-6.284-8.134-9.01-8.146c-1.418-0.006-3.053-0.881-3.758-2.011
	c-1.604-2.567-4.861-2.567-6.465,0c-0.757,1.213-2.332,2-4,2s-3.242,0.787-4,2c-0.864,1.384-2.332,2-4.768,2s-3.903-0.616-4.768-2
	c-0.758-1.213-2.332-2-4-2s-3.243-0.787-4-2c-1.049-1.679-2.332-2-8-2s-6.952-0.321-8-2c-1.056-1.69-2.332-2-8.241-2h-6.991v-5.759
	c0-4.677,0.376-5.995,2-7.009c1.68-1.048,2-2.332,2-8s0.32-6.951,2-8c1.142-0.712,2-2.332,2-3.771c0-1.664,1.362-3.775,4-6.2
	c3.781-3.477,4-3.994,4-9.46c0-4.7-0.375-6.017-2-7.032c-2.926-1.828-2.648-7.029,0.545-10.223c1.965-1.964,3.562-2.545,6.992-2.545
	c3.363,0,4.75-0.487,5.695-2c1.724-2.761,7.811-2.761,9.535,0c2.393,3.83,7.232,1.849,7.232-2.959c0-1.477,0.846-3.088,2-3.809
	c2.93-1.83,2.93-12.634,0-14.464c-1.544-0.964-2-2.332-2-6s-0.456-5.036-2-6c-1.1-0.687-2-2.331-2-3.652
	c0-3.242-5.789-9.091-9.01-9.105c-1.418-0.006-3.053-0.881-3.758-2.011c-1.432-2.292-8.016-2.816-10.032-0.8
	c-0.934,0.933-1.2,0.166-1.2-3.455c0-3.654,0.547-5.202,2.545-7.2c3.194-3.194,8.396-3.471,10.223-0.545
	c1.604,2.567,4.861,2.567,6.465,0c1.596-2.556,3.939-2.556,5.535,0c0.758,1.213,2.332,2,4,2s3.243,0.787,4,2
	c1.755,2.809,8.71,2.809,10.465,0c0.705-1.13,2.34-2.005,3.758-2.011c3.131-0.013,9.01-5.844,9.01-8.936
	c0-1.228,1.013-3.122,2.25-4.208c1.559-1.368,1.866-2.134,1-2.494c-0.688-0.286-1.25-0.932-1.25-1.436
	c0-0.554,193.894-0.917,490.5-0.917h490.5v488.559c0,325.452-0.334,488.354-1,487.941c-0.55-0.34-1-1.013-1-1.495
	s-4.557-5.519-10.127-11.191c-5.57-5.672-12.523-13.97-15.453-18.438c-2.929-4.469-6.059-8.406-6.955-8.75
	c-0.896-0.344-5.221-0.625-9.612-0.625c-11.322,0-13.811-1.55-13.837-8.615c-0.032-8.686-7.317-12.385-12.822-6.51
	c-2.996,3.197-6.248,5.125-8.647,5.125c-2.996,0-9.329-4.891-11.187-8.639c-1.844-3.722-4.045-4.915-12.449-6.753
	c-3.854-0.843-12.279-8.125-16.77-14.496c-2.176-3.087-5.408-6.962-7.184-8.612s-4.855-5.476-6.843-8.502s-4.869-7.142-6.403-9.146
	c-2.866-3.744-7.239-14.657-6.265-15.633c0.301-0.3,3.233,1.54,6.516,4.09c3.283,2.549,7.015,4.897,8.293,5.218
	c3.57,0.896,7.579-1.133,9.854-4.986c1.208-2.048,4.314-4.78,7.516-6.612c8.754-5.009,11.421-10.975,6.918-15.478
	c-2.568-2.568-2.895-2.628-10.642-1.942l-7.993,0.708l-5.879-5.608c-6.798-6.484-9.735-7.063-17.044-3.358
	c-6.286,3.187-8.642,7.584-7.303,13.634c0.562,2.539,1.361,5.403,1.777,6.366c0.668,1.549,0.107,1.75-4.884,1.75
	c-6.169,0-11.163-1.679-13.722-4.612c-0.906-1.038-3.973-6.388-6.815-11.888s-5.577-10.415-6.076-10.923
	c-0.554-0.563-1.832-0.502-3.28,0.158c-1.746,0.796-4.044,0.732-8.695-0.238c-4.119-0.859-7.158-1.002-8.72-0.408
	c-3.841,1.46-5.032,1.118-9.188-2.637c-3.354-3.03-14.499-9.205-36.57-20.261c-4.951-2.48-5.03-2.486-9.5-0.752
	c-6.877,2.668-9.752,2.958-12.36,1.249c-3.146-2.062-5.982-8.218-5.208-11.305c0.81-3.224,6.132-6.375,10.776-6.38
	c4.229-0.005,10.784-2.78,10.784-4.566c0-1.795-1.936-3.067-8.267-5.436c-3.157-1.182-6.189-2.986-6.737-4.01
	s-0.982-6.503-0.966-12.177l0.03-10.315l9.355-12.5c5.146-6.875,11.432-14.21,13.97-16.3c6.85-5.641,6.491-7.593-3.383-18.426
	c-8.986-9.861-11.181-13.831-12.966-23.461c-0.73-3.939-1.996-7.371-3.08-8.353c-1.034-0.936-4.604-1.993-8.148-2.414l-6.309-0.749
	l-4.5,4.977c-2.475,2.737-6.478,6.495-8.894,8.351c-4.245,3.261-4.703,3.375-13.5,3.391c-5.009,0.008-9.606,0.346-10.217,0.75
	c-0.611,0.403-1.803,2.084-2.647,3.734c-0.846,1.65-3.047,5.335-4.89,8.189c-10.477,16.217-10.84,17.367-10.847,34.387
	c-0.007,14.217-0.243,14.71-8.816,18.418c-2.371,1.025-4.733,2.654-5.25,3.619c-0.517,0.966-0.939,8.267-0.939,16.225v14.469
	l-4.25,4.586c-3.269,3.527-5.404,4.865-9.25,5.798c-8.565,2.075-9.173,3.592-4.843,12.093c1.461,2.869,3.684,9.042,4.939,13.717
	c1.255,4.675,3.234,11.2,4.399,14.5c1.847,5.234,2.031,7.289,1.45,16.11c-0.972,14.751,0.167,16.119,14.45,17.37
	c8.979,0.787,7.993,0.376,24.489,10.204c2.309,1.376,4.479,3.715,5.347,5.765c2.242,5.293,8.069,14.127,12.12,18.373
	c8.408,8.812,17.786,13.893,42.94,23.259c3.46,1.289,7.523,3.221,9.029,4.292c5.023,3.578,41.606,21.89,46.8,23.427
	c2.816,0.834,6.608,2.285,8.426,3.225c2.208,1.142,6.729,1.884,13.628,2.236c11.93,0.608,12.76,1.506,6.738,7.293
	c-7.485,7.195-8.483,13.629-3.055,19.693c1.852,2.067,3.658,5.387,4.024,7.391c0.833,4.56,6.388,11.94,11.062,14.698
	c4.078,2.406,4.546,4.97,1.416,7.759c-2.62,2.335-4.862,7.421-4.862,11.028c0,1.479,1.089,4.116,2.42,5.861
	c1.332,1.746,3.871,6.242,5.643,9.992c2.508,5.309,5.371,8.945,12.932,16.421c5.341,5.281,10.673,11.489,11.849,13.795
	c2.169,4.252,6.058,7.757,11.857,10.689c2.497,1.263,6.293,1.618,17.275,1.618h14.074l6.95-3.5l6.95-3.5h14.403h14.402l5.676-6.465
	c4.46-5.08,6.467-6.607,9.372-7.134c2.033-0.368,4.826-1.239,6.206-1.937c2.863-1.446,9.585-13.97,10.447-19.465
	c0.302-1.925,1.468-5.006,2.59-6.848c1.661-2.723,2.486-3.235,4.426-2.749c2.953,0.741,5.115-1.251,6.069-5.594
	c0.388-1.766,1.999-4.505,3.581-6.087l2.877-2.876l-0.005,480.326l-0.005,480.327l-2.245-2.675
	c-3.889-4.634-14.007-7.964-29.591-9.741c-9.412-1.072-12.42-3.166-13.294-9.252c-0.624-4.337-5.29-14.748-8.913-19.883
	c-2.496-3.538-31.721-22.965-41.447-27.553l-8-3.772l-19.5-0.68c-24.346-0.848-28.838-1.939-34.735-8.438
	c-2.33-2.567-6.215-8.794-8.634-13.837c-3.728-7.772-5.69-10.425-12.892-17.419c-7.276-7.067-8.985-8.25-11.913-8.25
	c-2.088,0-6.818-1.75-12.163-4.5c-8.423-4.334-9.071-4.5-17.581-4.5c-7.037,0-9.117-0.34-10.21-1.668
	c-0.755-0.918-4.659-4.104-8.676-7.08c-7.021-5.2-8.18-6.746-11.213-14.948c-1.528-4.135-9.479-9.612-17.983-12.39
	c-7.849-2.564-11.18-4.221-13.071-6.5c-1.757-2.117-7.977-6.696-22.929-16.882c-6.325-4.308-12.625-8.685-14-9.726
	c-2.491-1.887-5.455-3.917-26.697-18.288c-6.159-4.166-15.012-10.419-19.673-13.894s-9.864-6.894-11.562-7.598
	c-2.811-1.164-3.452-1.039-7.116,1.386c-5.698,3.771-8.581,4.738-9.784,3.282c-0.544-0.657-1.171-4.346-1.394-8.195
	s-1.146-10.6-2.053-15s-1.93-13.236-2.275-19.636c-0.762-14.101-2.399-17.864-7.775-17.864c-4.929,0-6.982,2.711-6.182,8.161
	c0.351,2.387,1.033,9.739,1.518,16.339c0.483,6.6,1.403,14.025,2.045,16.5c0.641,2.475,1.521,10.8,1.958,18.5
	c0.436,7.7,1.103,15.39,1.481,17.089c1.508,6.756-5.785,8.39-15.99,3.584c-3.3-1.554-9.6-4.096-14-5.647
	c-16.703-5.891-20.443-8.175-22.971-14.025c-0.713-1.65-2.906-4.853-4.876-7.116c-2.71-3.116-4.563-4.273-7.623-4.763
	c-3.434-0.549-5.736-2.298-15.286-11.609c-8.686-8.469-11.865-10.969-13.975-10.987c-3.442-0.03-4.479,3.247-2.743,8.673
	c2.539,7.935,4.968,10.818,14.804,17.574c5.318,3.654,14.694,11.317,20.835,17.031c6.141,5.713,15.899,13.61,21.687,17.549
	c5.786,3.939,12.237,9.262,14.335,11.829c9.726,11.9,33.365,34.047,48.071,45.035c8.231,6.15,12.702,10.343,16.633,15.598
	c5.876,7.855,37.904,39.674,43.976,43.687c2.08,1.375,5.661,3.966,7.958,5.757s7.053,5.392,10.569,8
	c3.516,2.608,10.041,7.479,14.5,10.825c4.458,3.345,9.917,7.274,12.13,8.732c5.521,3.638,17.937,6.66,30.359,7.391l10.384,0.611
	l11.116,7.952c6.114,4.373,12.917,9.599,15.117,11.612s7.693,6.257,12.209,9.43c4.515,3.173,9.164,6.988,10.333,8.479
	c1.169,1.49,8.427,9.195,16.13,17.122c7.702,7.927,15.753,16.779,17.89,19.672c3.314,4.486,4.683,5.49,9.315,6.837
	c2.987,0.868,6.529,1.579,7.871,1.579c1.343,0,5.099,0.932,8.347,2.07s9.456,3.212,13.796,4.606
	c7.795,2.506,8.054,2.699,21.588,16.18c7.533,7.504,16.316,16.794,19.518,20.644s12.562,14.034,20.803,22.631
	c8.24,8.598,15.532,16.922,16.205,18.5c1.817,4.264,4.161,5.837,12.996,8.723c9.087,2.969,22.5,4.632,22.5,2.79
	c0-0.629,0.45-1.144,1-1.144c0.65,0,1,14.167,1,40.5v40.5H1148.279H5.773L6.029,2109.035z M2166.133,628.294
	c0.82-0.819,2.036-3.183,2.702-5.25c1.976-6.132,2.247-6.259,13.372-6.259c10.397,0,12.578-0.704,12.578-4.062
	c0-0.914,1.35-3.361,3-5.438c3.13-3.938,3.646-6.669,2.055-10.857c-0.703-1.85-0.575-2.796,0.5-3.688
	c2.094-1.738,1.81-7.315-0.479-9.386c-1.449-1.312-1.787-2.576-1.372-5.136c0.656-4.042-1.282-7.48-5.682-10.079
	c-2.442-1.443-3.028-2.464-3.054-5.32c-0.053-6.073-3.989-14.077-8.68-17.649c-3.581-2.728-5.376-3.313-12-3.919
	c-4.284-0.393-11.508-1.782-16.055-3.09c-4.545-1.307-10.215-2.376-12.598-2.376c-3.972,0-4.789-0.479-9.816-5.75
	c-3.016-3.162-6.025-6.763-6.688-8c-0.759-1.42-2.133-2.25-3.723-2.25c-2.094,0-2.933,0.932-4.953,5.5
	c-1.937,4.38-2.902,5.5-4.744,5.5c-1.272,0-2.841-0.527-3.486-1.173c-1.661-1.662-6.227,0.548-6.227,3.015
	c0,4.387,2.145,12.66,3.738,14.421c0.946,1.047,3.212,2.525,5.034,3.287c3.29,1.374,3.302,1.405,1.771,4.367
	c-2.807,5.427-1.121,10.407,4.104,12.132c2.915,0.962,3.353,1.543,3.353,4.452c0,2.109-0.924,4.443-2.5,6.316
	c-4.904,5.829-2.529,12.362,9.071,24.947c4.189,4.546,11.062,10.812,15.273,13.925c4.21,3.113,9.164,6.819,11.008,8.235
	C2158.676,630.116,2163.193,631.233,2166.133,628.294z M928.121,1783.218c-0.893-2.325,1.622-4.433,5.286-4.433
	c2.274,0,3.378,0.471,3.378,1.441c0,1.702-1.012,2.415-5.085,3.583C929.392,1784.472,928.549,1784.332,928.121,1783.218z
	 M1047.785,1649.785c0-1.242,0.667-2,1.76-2c0.968,0,2.321,0.9,3.008,2c1.146,1.834,0.999,2-1.759,2
	C1048.452,1651.785,1047.785,1651.342,1047.785,1649.785z M1051.018,1609.785c-0.758-1.213-2.332-2-4-2s-3.243-0.787-4-2
	c-0.758-1.213-2.332-2-4-2s-3.243-0.787-4-2c-1.095-1.753-2.332-2-10-2s-8.906-0.248-10-2c-0.758-1.213-2.332-2-4-2
	s-3.243-0.787-4-2c-0.758-1.213-2.332-2-4-2s-3.243-0.787-4-2c-1.049-1.68-2.332-2-8-2s-6.952-0.32-8-2
	c-0.945-1.513-2.332-2-5.695-2c-5.17,0-9.537-3.451-9.537-7.537c0-1.363-0.886-2.999-2-3.695c-2.653-1.656-2.521-3.154,0.546-6.223
	c3.067-3.066,4.565-3.198,6.222-0.545c0.91,1.456,2.332,2,5.232,2s4.322-0.544,5.232-2c0.757-1.213,2.332-2,4-2s3.242-0.787,4-2
	c0.687-1.1,1.933-2,2.768-2s2.081,0.9,2.768,2c0.758,1.213,2.332,2,4,2s3.243,0.787,4,2c0.91,1.456,2.332,2,5.232,2
	s4.322-0.544,5.232-2c1.04-1.666,2.335-2.001,7.758-2.005l6.51-0.005l5.769-5.995l5.769-5.995h6.234
	c5.713,0,6.486-0.267,9.231-3.182l2.997-3.183l0.299,6.804c0.259,5.918,0.031,6.991-1.75,8.239
	c-1.206,0.844-2.049,2.547-2.049,4.138c0,1.619-0.802,3.203-2,3.951c-1.625,1.016-1.998,2.325-1.989,6.991
	c0.01,5.19,0.331,6.053,3.356,8.991c2.062,2.003,4.359,3.25,5.989,3.25c2.269,0,2.644,0.424,2.644,2.991
	c0,1.909,0.724,3.444,2,4.241c1.1,0.687,2,1.932,2,2.768c0,0.835-0.9,2.081-2,2.768c-1.276,0.797-2,2.332-2,4.241
	c0,2.655-0.336,2.991-2.991,2.991c-1.909,0-3.444,0.724-4.241,2c-0.687,1.1-1.933,2-2.768,2
	C1052.949,1611.785,1051.704,1610.885,1051.018,1609.785z M1386.035,1597.145c-3.173-3.426-2.905-5.359,0.741-5.359
	c1.909,0,3.444-0.724,4.241-2c1.043-1.67,2.332-2,7.808-2c3.608,0,7.047-0.487,7.642-1.082c1.281-1.281,4.369,0.333,6.179,3.23
	c0.981,1.57,0.853,1.852-0.844,1.852c-1.1,0-2.562,0.9-3.249,2c-1.049,1.68-2.332,2-8,2s-6.951,0.32-8,2
	C1390.936,1600.376,1388.837,1600.17,1386.035,1597.145z M1432.871,1595.757c-3.149-3.583-3.873-3.907-9.297-4.179l-5.882-0.293
	l3.544-3.75l3.544-3.75h10.494c9.411,0,10.623-0.206,11.743-2c1.143-1.83,2.332-2,14-2s12.856-0.17,14-2c0.72-1.154,2.332-2,3.808-2
	c1.408,0,3.1-0.54,3.76-1.2s1.2-0.905,1.2-0.546c0,1.668-5.35,5.746-7.537,5.746c-1.363,0-2.999,0.886-3.695,2
	c-0.757,1.213-2.332,2-4,2s-3.242,0.787-4,2c-0.757,1.213-2.332,2-4,2s-3.242,0.787-4,2c-0.757,1.213-2.332,2-4,2s-3.242,0.787-4,2
	c-0.757,1.213-2.332,2-4,2s-3.242,0.787-4,2C1438.743,1600.684,1436.734,1600.153,1432.871,1595.757z M559.785,1560.844
	c0-0.582,0.45-1.059,1-1.059s1,0.198,1,0.441c0,0.242-0.45,0.719-1,1.059S559.785,1561.427,559.785,1560.844z M1299.785,1544.794
	c0-1.909-0.724-3.444-2-4.241c-1.662-1.037-2-2.332-2-7.652c0-5.87-0.271-6.681-3.25-9.748c-1.787-1.84-4.243-3.351-5.458-3.356
	c-1.357-0.007-4.341-2.195-7.75-5.688c-5.716-5.854-6.247-6.77-4.542-7.823c0.55-0.34,1-1.941,1-3.559
	c0-2.862,0.135-2.941,4.991-2.941c3.909,0,5.263-0.434,6.241-2c0.757-1.213,2.332-2,4-2s3.242-0.787,4-2c1.048-1.68,2.332-2,8-2
	s6.951-0.32,8-2c0.864-1.385,2.332-2,4.768-2s3.903,0.615,4.768,2c0.91,1.456,2.332,2,5.232,2s4.322-0.544,5.232-2
	c0.687-1.1,1.681-2,2.208-2s0.42,0.54-0.24,1.2s-1.2,1.851-1.2,2.645c0,2.006,14.332,16.155,16.363,16.155
	c1.403,0,1.465,0.303,0.404,2c-0.687,1.1-1.933,2-2.768,2c-0.836,0-2.081-0.9-2.768-2c-0.758-1.213-2.332-2-4-2s-3.243-0.787-4-2
	c-1.432-2.292-8.016-2.816-10.032-0.8s-1.492,8.601,0.8,10.032c1.113,0.695,2,2.332,2,3.692c0,1.731,2.33,4.736,8,10.315
	c6.928,6.816,8,8.334,8,11.316c0,2.62-0.421,3.443-1.76,3.443c-0.968,0-2.321-0.9-3.008-2c-1.762-2.819-4.279-2.486-7.57,1
	c-1.558,1.65-3.199,3-3.648,3s-2.999-2.243-5.665-4.984c-5.243-5.391-7.629-6.141-9.581-3.016c-0.721,1.153-2.332,2-3.809,2
	c-3.322,0-4.959,1.717-4.959,5.2c0,2.133-0.477,2.8-2,2.8C1300.23,1547.785,1299.785,1547.118,1299.785,1544.794z M819.785,1540.794
	c0-1.909-0.724-3.444-2-4.241c-1.752-1.094-2-2.332-2-10s-0.247-8.905-2-10c-1.1-0.687-2-1.933-2-2.768c0-0.836,0.9-2.081,2-2.768
	c1.1-0.688,2-2.142,2-3.232s-0.9-2.545-2-3.232c-1.679-1.049-2-2.332-2-8s-0.32-6.951-2-8c-1.213-0.757-2-2.332-2-4
	s-0.787-3.242-2-4c-1.213-0.757-2-2.332-2-4s-0.787-3.242-2-4c-1.1-0.687-2-2.04-2-3.008c0-1.427,0.879-1.76,4.646-1.76
	c4.438,0,4.971-0.326,12-7.354c5.433-5.433,7.354-8.047,7.354-10c0-2.537,0.224-2.646,5.455-2.646c4.511,0,5.895,0.44,8,2.545
	c1.399,1.4,2.545,3.646,2.545,4.992c0,1.363,0.886,2.999,2,3.695c1.213,0.757,2,2.332,2,4s0.787,3.242,2,4
	c1.93,1.205,2,2.332,2,32.208c0,24.079-0.267,30.692-1.2,29.76c-0.66-0.66-3.697-1.195-6.75-1.189
	c-4.973,0.01-5.888,0.358-8.8,3.356c-1.787,1.84-3.25,4.29-3.25,5.443c0,2.395-4.365,7.189-6.545,7.189
	C820.291,1543.785,819.785,1542.744,819.785,1540.794z M616.288,1538.97c-1.824-1.939-3.979-3.185-5.509-3.185
	c-1.462,0-3.057-0.87-3.811-2.078c-1.407-2.253-1.15-2.794,3.612-7.604c2.815-2.844,4.344-2.925,5.972-0.318
	c0.927,1.483,2.332,2,5.441,2c3.26,0,3.925,0.267,2.991,1.2c-0.66,0.66-1.2,2.352-1.2,3.759c0,1.443-0.84,3.084-1.926,3.763
	c-1.059,0.661-2.071,2.202-2.25,3.425C619.298,1542.069,619.172,1542.033,616.288,1538.97z M599.785,1532.844
	c0-0.582,0.45-1.059,1-1.059s1,0.198,1,0.441c0,0.242-0.45,0.719-1,1.059S599.785,1533.427,599.785,1532.844z M651.018,1513.785
	c0.687-1.1,2.04-2,3.008-2c1.093,0,1.76,0.758,1.76,2c0,1.557-0.667,2-3.009,2C650.019,1515.785,649.872,1515.619,651.018,1513.785z
	 M1529.932,1508.462c-1.629-1.963-0.314-7.446,2.208-9.213c3.67-2.57,4.646-1.853,4.646,3.419c0,3.75-0.406,5.027-1.75,5.501
	c-0.963,0.34-2.245,0.857-2.85,1.15C1531.58,1509.612,1530.566,1509.227,1529.932,1508.462z M1709.057,1503.899
	c-3.018-1.509-3.229-1.957-3.25-6.864c-0.012-2.888,0.408-5.25,0.934-5.25c1.701,0,11.045-12.404,11.045-14.663
	c0-2.534,4.351-6.337,7.25-6.337c2.958,0,14.668-8.161,20.37-14.197c2.755-2.916,6.272-7.461,7.816-10.098
	c4.497-7.685,4.206-4.561-0.438,4.681c-4.999,9.952-4.903,12.738,0.527,15.328c2.858,1.363,3.474,2.204,3.474,4.749
	c0,4.387-4.872,9.537-9.021,9.537c-2.999,0-3.121,0.158-2.807,3.637c0.324,3.598,0.269,3.656-5.133,5.428
	c-5.879,1.929-8.039,3.978-8.039,7.627c0,1.978-0.509,2.309-3.55,2.309c-3.82,0-8.302,1.911-10.396,4.434
	C1716.247,1506.138,1713.319,1506.031,1709.057,1503.899z M1337.785,1487.344c0-0.242,0.45-0.719,1-1.059s1-0.142,1,0.441
	c0,0.582-0.45,1.059-1,1.059S1337.785,1487.587,1337.785,1487.344z M1430.091,1432.37c-1.543-1.328-2.507-2.714-2.143-3.08
	c0.96-0.962,5.837,2.472,5.837,4.11C1433.785,1435.289,1433.338,1435.164,1430.091,1432.37z M826.477,1429.035
	c-0.445-0.688-1.872-1.25-3.172-1.25c-3.067,0-11.52-8.342-11.52-11.37c0-1.302-1.647-3.727-4-5.89c-3.699-3.401-4-4.076-4-8.969
	c0-4.207,0.409-5.546,2-6.539c1.103-0.688,2-2.332,2-3.662c0-3.123,8.307-11.57,11.379-11.57c1.222,0,2.761-0.54,3.421-1.2
	c0.934-0.933,1.2-0.713,1.2,0.991c0,1.206,0.9,2.754,2,3.441c1.544,0.964,2,2.332,2,6s0.456,5.035,2,6
	c2.886,1.802,2.911,11.717,0.035,13.514c-1.712,1.068-2.002,2.55-2.25,11.49C827.412,1425.72,826.926,1429.729,826.477,1429.035z
	 M1427.785,1398.892v-5.127l5.66,3.758l5.659,3.758l-3.409,0.665c-1.876,0.366-4.423,0.982-5.66,1.369
	C1427.902,1403.981,1427.785,1403.75,1427.785,1398.892z M1403.785,1341.53c0-1.667,5.35-5.745,7.537-5.745
	c1.363,0,2.999-0.886,3.695-2c0.76-1.218,2.332-2,4.017-2c2.518,0,2.655,0.181,1.519,2c-0.757,1.213-2.332,2-4,2s-3.242,0.787-4,2
	c-0.721,1.153-2.332,2-3.809,2c-1.407,0-3.099,0.54-3.759,1.2S1403.785,1341.891,1403.785,1341.53z M358.285,1052.785
	c-0.34-0.55,0.148-1,1.085-1c2.807,0,8.393-6.148,8.404-9.25c0.01-2.385,0.408-2.75,3.002-2.75c1.909,0,3.444-0.724,4.241-2
	c0.705-1.13,2.341-2.005,3.758-2.011c1.522-0.007,3.789-1.327,5.76-3.356c2.594-2.67,3.25-4.173,3.25-7.443
	c0-4.812,3.59-9.189,7.537-9.189c1.363,0,2.999-0.886,3.695-2c1.154-1.849,2.345-2.002,15.758-2.023l14.51-0.022l5.25-5.339
	c2.888-2.936,5.25-5.915,5.25-6.62s-1.463-2.788-3.25-4.628c-3.942-4.059-9.878-4.735-11.982-1.367c-0.993,1.591-2.332,2-6.539,2
	c-4.893,0-5.567-0.301-8.969-4c-2.264-2.463-4.57-4-6-4s-3.735-1.537-6-4c-3.47-3.773-4.002-4-9.409-4c-3.153,0-6.011,0.45-6.351,1
	c-0.984,1.593-1.851,1.22-5.792-2.498c-5.229-4.932-4.919-6.502,1.283-6.502c3.909,0,5.263-0.434,6.241-2c0.687-1.1,2.331-2,3.653-2
	c3.345,0,17.114-13.77,17.114-17.114c0-1.322,0.9-2.967,2-3.653c2.241-1.399,2.614-4.218,0.8-6.032c-0.933-0.934-0.933-1.467,0-2.4
	c1.94-1.94,1.407-3.874-2.05-7.433c-4.042-4.161-9.697-4.708-12.17-1.178c-0.844,1.204-1.788,1.936-2.1,1.625
	c-0.311-0.312,0.805-1.857,2.478-3.437c3.526-3.329,3.871-5.844,1.042-7.61c-2.7-1.686-2.895-8.768-0.24-8.768
	c0.968,0,2.321,0.9,3.008,2c0.758,1.213,2.332,2,4,2s3.243,0.787,4,2c0.688,1.1,2.142,2,3.232,2s2.545-0.9,3.232-2
	c1.038-1.663,2.347-2.004,7.758-2.023l6.51-0.022l5.25-5.339c3.39-3.446,5.25-6.188,5.25-7.736c0-1.318,0.9-2.96,2-3.646
	c1.1-0.688,2-2.142,2-3.232s-0.9-2.545-2-3.232c-1.1-0.687-2-1.933-2-2.768c0-0.836,0.9-2.081,2-2.768c1.722-1.076,2-2.332,2-9.041
	c0-4.727-0.472-8.264-1.2-8.991c-1.814-1.814-4.633-1.441-6.032,0.8c-1.656,2.653-3.154,2.521-6.222-0.546
	c-2.359-2.358-2.546-3.22-2.546-11.759c0-8.131,0.235-9.361,2-10.463c2.843-1.775,2.486-4.02-1.25-7.865
	c-3.942-4.059-9.878-4.735-11.982-1.367c-0.864,1.385-2.332,2-4.768,2s-3.903-0.615-4.768-2c-0.688-1.1-2.142-2-3.232-2
	s-2.545,0.9-3.232,2c-0.864,1.385-2.332,2-4.768,2s-3.903-0.615-4.768-2c-1.399-2.241-4.218-2.614-6.032-0.8
	c-0.934,0.933-1.2,0.488-1.2-2c0-2.822,0.325-3.201,2.75-3.211c3.461-0.014,9.25-5.712,9.25-9.105c0-1.321,0.9-2.965,2-3.651
	c1.456-0.91,2-2.332,2-5.232s-0.544-4.322-2-5.232c-1.624-1.014-2-2.332-2-7.008c0-5.642,0.058-5.76,2.8-5.76
	c5.024,0,7.137-4.773,3.2-7.232c-1.153-0.721-2-2.332-2-3.809c0-4.809-4.84-6.789-7.232-2.959c-1.596,2.556-3.939,2.556-5.535,0
	c-2.459-3.937-7.232-1.824-7.232,3.2c0,2.133-0.477,2.8-2,2.8c-1.646,0-2-0.667-2-3.76c0-2.676,0.576-4.119,2-5.008
	c2.241-1.399,2.614-4.218,0.8-6.032c-0.933-0.934-0.933-1.467,0-2.4c1.814-1.814,1.441-4.633-0.8-6.032c-1.213-0.757-2-2.332-2-4
	s-0.787-3.242-2-4c-1.1-0.687-2-1.933-2-2.768c0-0.836,0.9-2.081,2-2.768c1.544-0.965,2-2.332,2-6s0.456-5.036,2-6
	c1.729-1.08,2-2.332,2-9.232s-0.271-8.152-2-9.232c-1.1-0.687-2-1.933-2-2.768c0-0.836,0.9-2.081,2-2.768
	c1.513-0.945,2-2.332,2-5.695c0-5.078,3.435-9.537,7.346-9.537c3.62,0,4.654-1.94,4.654-8.731c0-6.106,0.142-6.461,4-10.009
	c2.833-2.604,4-4.492,4-6.469v-2.791h16.991c15.909,0,17.071-0.128,18.241-2c0.687-1.1,2.04-2,3.008-2
	c1.465,0,1.76,0.915,1.76,5.454c0,4.511-0.44,5.896-2.545,8c-1.4,1.4-3.557,2.546-4.792,2.546c-1.34,0-3.728,1.612-5.923,4
	c-2.214,2.407-4.586,4.004-5.959,4.011c-2.502,0.012-8.781,5.836-8.781,8.146c0,2.261,2.142,3.844,5.2,3.844
	c2.133,0,2.8,0.477,2.8,2c0,1.537-0.667,2-2.878,2c-4.14,0-5.272,1.97-4.925,8.562c0.219,4.142,0.788,6.035,2.053,6.829
	c2.549,1.6,5.182-0.408,5.563-4.242c0.272-2.744,0.69-3.149,3.241-3.149c1.846,0,3.391-0.74,4.178-2c1.004-1.607,2.332-2,6.768-2
	s5.764,0.393,6.768,2c1.144,1.83,2.332,2,14,2c11.905,0,12.839,0.141,14.074,2.118c0.948,1.519,1.017,2.424,0.24,3.2
	c-0.595,0.595-1.082,2.233-1.082,3.641c0,1.477-0.846,3.088-2,3.809c-1.213,0.758-2,2.332-2,4s-0.787,3.243-2,4
	c-1.213,0.758-2,2.332-2,4s-0.787,3.243-2,4c-1.213,0.758-2,2.332-2,4s-0.787,3.243-2,4c-1.114,0.696-2,2.332-2,3.695
	c0,3.068-4.355,7.537-7.346,7.537c-5.3,0-6.027,4.215-1.468,8.503l3.187,2.997l-3.905,0.323c-4.079,0.338-10.436,5.244-10.457,8.07
	c-0.006,0.767,1.452,2.899,3.239,4.739c2.476,2.548,4.097,3.349,6.8,3.356c1.953,0.006,4.09-0.529,4.75-1.189
	c0.934-0.934,1.467-0.934,2.4,0c0.66,0.66,2.188,1.2,3.396,1.2c1.455,0,5.768,3.572,12.8,10.604
	c8.991,8.991,10.604,11.085,10.604,13.76c0,2.071-0.687,3.583-2,4.403c-2.93,1.83-2.93,12.635,0,14.465
	c1.122,0.7,2.01,2.351,2.023,3.758c0.028,3.138,9.736,13.01,12.793,13.01c2.769,0,7.184,4.509,7.184,7.337
	c0,1.34,1.612,3.728,4,5.923c2.426,2.23,4,4.577,4,5.963c0,1.256,1.35,3.558,3,5.115c3.176,2.998,3.625,4.157,2,5.162
	c-1.694,1.047-1.107,4.416,1,5.732c1.213,0.757,2,2.332,2,4s0.787,3.242,2,4c1.544,0.964,2,2.332,2,6s0.456,5.035,2,6
	c1.213,0.757,2,2.332,2,4s0.787,3.242,2,4c1.385,0.864,2,2.332,2,4.768s-0.615,3.903-2,4.768c-1.213,0.758-2,2.332-2,4
	s-0.787,3.243-2,4c-1.1,0.688-2,1.985-2,2.885c0,2.09,6.012,8.323,8.041,8.337c0.848,0.006,3.196-1.789,5.219-3.989
	c2.426-2.638,4.537-4,6.201-4c1.439,0,3.059-0.858,3.771-2c0.687-1.1,1.933-2,2.768-2s2.081,0.9,2.768,2
	c0.942,1.509,2.332,2,5.662,2c3.907,0,4.937,0.523,8.991,4.579c5.097,5.097,5.497,6.366,2.579,8.188c-1.679,1.049-2,2.332-2,8
	s-0.32,6.951-2,8c-1.213,0.758-2,2.332-2,4s-0.787,3.243-2,4c-1.275,0.797-2,2.332-2,4.241c0,2.655-0.336,2.991-2.991,2.991
	c-1.909,0-3.444,0.724-4.241,2c-0.72,1.153-2.332,2-3.808,2c-4.81,0-6.79,4.84-2.96,7.232c1.1,0.687,2,1.932,2,2.768
	c0,0.835-0.9,2.081-2,2.768c-3.83,2.393-1.85,7.232,2.96,7.232c1.476,0,3.088,0.847,3.808,2c1.432,2.292,8.016,2.816,10.032,0.8
	c0.66-0.66,1.2-0.927,1.2-0.593s-2.967,3.574-6.593,7.2c-4.459,4.46-7.368,6.593-8.991,6.593c-1.319,0-2.961,0.9-3.648,2
	c-0.757,1.213-2.332,2-4,2s-3.242,0.787-4,2c-0.864,1.385-2.332,2-4.768,2s-3.903-0.615-4.768-2c-1.08-1.729-2.332-2-9.232-2
	s-8.152,0.271-9.232,2c-1.068,1.712-2.332,2-8.768,2s-7.699-0.288-8.768-2c-1.888-3.022-4.424-2.426-8.492,2l-3.678,4h-10.331
	c-6.702,0-10.753,0.422-11.531,1.2c-0.934,0.933-1.467,0.933-2.4,0c-0.66-0.66-2.352-1.2-3.759-1.2c-1.477,0-3.089-0.847-3.809-2
	c-0.91-1.456-2.332-2-5.232-2s-4.322,0.544-5.232,2c-0.687,1.1-2.331,2-3.653,2c-2.757,0-16.64,13.221-17.248,16.426
	c-0.326,1.713-0.696,1.574-3.363-1.25c-1.82-1.93-3.982-3.176-5.509-3.176c-1.43,0-3.052-0.862-3.762-2c-0.688-1.1-2.142-2-3.232-2
	s-2.545,0.9-3.232,2c-0.757,1.213-2.332,2-4,2s-3.242,0.787-4,2c-0.949,1.52-2.332,2-5.762,2c-3.718,0-5.011,0.528-7.344,3
	C360.449,1053.961,359.29,1054.41,358.285,1052.785z M259.017,981.785c-1.03-1.65-2.332-2-7.44-2c-4.815,0-5.925-0.267-4.992-1.2
	c0.66-0.66,1.2-2.819,1.2-4.8c0-3.959-1.432-6-4.208-6c-1.559,0-1.636-0.276-0.557-2.004c1.521-2.435,0.135-5.186-3.009-5.974
	c-1.751-0.438-1.888-0.789-0.858-2.187c0.675-0.915,2.51-1.815,4.079-2c5.642-0.665,5.993-6.552,0.469-7.855
	c-1.628-0.385-1.998-0.812-1.155-1.332c0.682-0.422,1.24-1.981,1.24-3.467c0-1.617,0.802-3.201,2-3.949c1.544-0.965,2-2.332,2-6
	s0.456-5.036,2-6c1.544-0.965,2-2.332,2-6s0.456-5.036,2-6c1.779-1.111,2-2.332,2-11.041c0-10.676-0.646-12.191-5.2-12.191
	c-3.384,0-3.863-2.854-0.8-4.768c1.213-0.758,2-2.332,2-4s0.788-3.243,2-4c1.429-0.893,2-2.332,2-5.041c0-4.221-1.4-6.191-4.4-6.191
	c-1.556,0-1.733-0.267-0.8-1.2c0.66-0.66,1.2-3.114,1.2-5.454c0-3.226,0.616-4.871,2.545-6.801c1.4-1.399,2.989-2.545,3.531-2.545
	s2.641,1.8,4.664,4l3.677,4h9.591c10.464,0,11.991-0.662,11.991-5.2c0-2.36,0.415-2.8,2.644-2.8c2.916,0,9.335-5.501,9.335-8
	c0-2.094-6.301-8-8.535-8c-1.434,0-1.577-0.267-0.644-1.2c0.66-0.66,1.2-2.214,1.2-3.454s1.146-3.4,2.545-4.801
	c2.201-2.2,3.418-2.545,8.992-2.545c5.363,0,6.656-0.336,7.695-2c0.757-1.213,2.332-2,4-2s3.242-0.787,4-2
	c2.203-3.528,7.228-2.654,11.508,2l3.678,4h8.791h8.791v2.991c0,1.909,0.724,3.444,2,4.241c1.15,0.719,2,2.332,2,3.799
	c0,1.696,1.34,3.783,4,6.229c2.638,2.426,4,4.537,4,6.201c0,1.439,0.858,3.059,2,3.771c1.1,0.687,2,1.773,2,2.416
	c0,2.105-13.069,14.351-15.343,14.375c-2.531,0.026-12.657,9.891-12.657,12.329c0,0.896,0.9,2.192,2,2.88
	c1.915,1.195,2,2.332,2,26.768s-0.085,25.572-2,26.768c-1.521,0.95-2,2.332-2,5.771c0,3.997-0.465,4.951-4,8.201
	c-2.2,2.022-4,4.573-4,5.669c0,1.548-0.267,1.724-1.2,0.791c-0.66-0.66-3.806-1.2-6.991-1.2c-4.709,0-6.025,0.374-7.041,2
	c-1.605,2.571-3.941,2.552-5.564-0.047c-1.101-1.761-2.131-2.005-7.387-1.75c-6.981,0.339-9.278,2.227-7.051,5.793
	c1.096,1.754,1.002,2.004-0.749,2.004c-1.1,0-2.562,0.9-3.249,2c-1.043,1.67-2.332,2-7.809,2c-7.027,0-8.959,1.004-8.959,4.654
	c0,2.99-4.469,7.346-7.537,7.346c-1.363,0-2.999,0.886-3.695,2c-0.687,1.1-1.933,2-2.768,2S259.704,982.885,259.017,981.785z
	 M227.785,961.785c0-1.557,0.667-2,3.008-2c2.758,0,2.905,0.166,1.76,2c-0.687,1.1-2.041,2-3.009,2
	C228.452,963.785,227.785,963.027,227.785,961.785z M389.785,871.344c0-0.242,0.45-0.719,1-1.059s1-0.142,1,0.441
	c0,0.582-0.45,1.059-1,1.059S389.785,871.587,389.785,871.344z M810.943,825.667c-0.948-1.519-1.017-2.424-0.24-3.2
	c1.707-1.707,1.266-4.55-0.918-5.914c-1.385-0.864-2-2.332-2-4.768s0.615-3.903,2-4.768c2.184-1.364,2.625-4.207,0.918-5.914
	c-1.779-1.779,1.092-5.318,4.314-5.318c1.668,0,3.242-0.787,4-2c0.889-1.424,2.332-2,5.008-2c3.68,0,3.76,0.08,3.76,3.76
	c0,2.676-0.576,4.119-2,5.008c-1.803,1.126-2,2.332-2,12.241v10.991h-2.991c-1.909,0-3.444,0.724-4.241,2
	C814.933,828.38,812.607,828.331,810.943,825.667z M782.285,812.945c-0.55-0.531-1.866-1.122-2.926-1.313
	c-1.709-0.308-1.568-0.684,1.25-3.344c2.073-1.956,3.176-3.952,3.176-5.75c0-2.086,0.484-2.753,2-2.753c1.646,0,2,0.667,2,3.76
	c0,2.628-0.579,4.121-1.926,4.962c-1.059,0.661-2.071,2.147-2.25,3.303C783.397,813.184,782.939,813.576,782.285,812.945z
	 M355.785,724.794c0-1.909-0.724-3.444-2-4.241c-3.063-1.913-2.585-4.768,0.8-4.768c1.54,0,3.34-0.54,4-1.2
	c0.934-0.934,1.2,0.134,1.2,4.8c0,3.334,0.533,6.533,1.2,7.2c0.934,0.934,0.488,1.2-2,1.2
	C356.099,727.785,355.785,727.492,355.785,724.794z M345.535,692.393c-0.963-0.73-1.75-1.806-1.75-2.389
	c0-2.023,9.126-10.219,11.379-10.219c1.222,0,2.761-0.54,3.421-1.2s1.2-0.769,1.2-0.24c0,0.527-0.9,1.521-2,2.208
	c-1.132,0.707-2,2.332-2,3.743c0,1.581-1.357,3.773-3.708,5.991C347.901,694.226,347.936,694.215,345.535,692.393z M961.535,676.393
	c-0.963-0.73-1.75-2.426-1.75-3.768s-0.487-2.927-1.082-3.521c-1.281-1.281,0.333-4.369,3.23-6.179c1.401-0.876,2.302-0.876,3.703,0
	c2.897,1.81,4.512,4.897,3.23,6.179c-0.595,0.595-1.082,2.18-1.082,3.521c0,2.079-2.368,5.097-4,5.097
	C963.51,677.722,962.498,677.124,961.535,676.393z M435.785,652.985c0-5.028,0.093-5.2,2.8-5.2c3.554,0,5.2-1.646,5.2-5.2
	c0-2.755,0.096-2.8,6-2.8c5.06,0,6,0.275,6,1.76c0,2.373-3.857,4.783-5.318,3.322c-1.859-1.859-4.064-1.182-7.432,2.285
	c-3.457,3.559-3.99,5.492-2.05,7.433c0.934,0.934,0.756,1.2-0.8,1.2c-1.101,0-2.54,0.54-3.2,1.2
	C436.052,657.918,435.785,657.029,435.785,652.985z M638.285,620.785c-0.34-0.55,0.335-1,1.5-1s1.84,0.45,1.5,1s-1.015,1-1.5,1
	S638.625,621.335,638.285,620.785z M1035.785,602.025c0-0.968,0.9-2.321,2-3.008c1.276-0.797,2-2.332,2-4.241v-2.991h7.2
	c5.6,0,6.933,0.267,6,1.2c-0.66,0.66-1.2,2.214-1.2,3.454s-1.146,3.4-2.546,4.8c-2.104,2.105-3.489,2.546-8,2.546
	C1036.7,603.785,1035.785,603.49,1035.785,602.025z M482.475,597.035c-0.444-0.688-2.131-1.25-3.748-1.25
	c-3.519,0-4.074-2.812-0.941-4.768c1.276-0.797,2-2.332,2-4.241c0-2.593,0.366-2.993,2.75-3.007c1.975-0.011,4.126-1.43,7.632-5.034
	c2.686-2.761,5.134-4.769,5.44-4.462s-0.429,1.248-1.633,2.092c-1.334,0.935-2.189,2.589-2.189,4.236c0,1.619-0.802,3.203-2,3.951
	c-1.213,0.758-2,2.332-2,4c0,1.633-0.783,3.24-1.926,3.954c-1.059,0.661-2.071,2.231-2.251,3.49
	C483.383,597.579,483.033,597.899,482.475,597.035z M1038.585,574.585c0.934-0.934,1.467-0.934,2.4,0c0.933,0.934,0.667,1.2-1.2,1.2
	S1037.652,575.519,1038.585,574.585z M362.285,504.785c-0.34-0.55-1.495-1-2.567-1c-1.699,0-1.789-0.257-0.7-2
	c1.63-2.61,8.768-2.903,8.768-0.36c0,1.531-2.639,4.257-4.19,4.328C363.214,505.771,362.625,505.335,362.285,504.785z
	 M658.585,482.585c0.934-0.934,1.467-0.934,2.4,0s0.667,1.2-1.2,1.2C657.919,483.785,657.652,483.519,658.585,482.585z
	 M135.017,397.785c-0.964-1.544-2.332-2-6-2s-5.036-0.456-6-2c-0.712-1.142-2.332-2-3.771-2c-1.664,0-3.775-1.362-6.201-4
	c-2.604-2.833-4.492-4-6.469-4c-2.433,0-2.791-0.384-2.791-2.992c0-1.908-0.724-3.443-2-4.24c-1.1-0.687-2-2.328-2-3.647
	c0-2.833-9.56-13.062-12.242-13.098c-0.958-0.013-2.303,0.877-2.99,1.977s-1.933,2-2.768,2s-2.081-0.9-2.768-2
	c-0.757-1.213-2.332-2-4-2s-3.243-0.788-4-2c-1.071-1.715-0.998-2.001,0.51-2.011c2.092-0.013,8.258-6.088,8.258-8.137
	c0-0.789-1.8-3.09-4-5.113c-2.638-2.425-4-4.537-4-6.2c0-1.439-0.859-3.059-2-3.771c-1.213-0.757-2-2.332-2-4s-0.788-3.243-2-4
	c-1.213-0.757-2-2.332-2-4s-0.788-3.243-2-4c-1.213-0.757-2-2.332-2-4s-0.788-3.243-2-4c-2.484-1.552-2.646-4.768-0.241-4.768
	c0.968,0,2.322,0.9,3.009,2c1.143,1.83,2.332,2,14,2s12.857,0.17,14,2c1.775,2.843,4.019,2.486,7.865-1.25
	c4.651-4.518,4.248-7.907-1.058-8.893c-1.711-0.318-1.572-0.69,1.25-3.354c1.747-1.648,3.175-3.624,3.175-4.389
	c0-2.513-10.279-12.067-13.009-12.092c-1.408-0.013-3.058-0.901-3.759-2.023c-0.687-1.1-2.235-2-3.44-2
	c-1.705,0-1.925-0.267-0.992-1.2c1.553-1.552,1.553-8.047,0-9.6c-0.933-0.934-0.933-1.467,0-2.4c0.66-0.66,1.2-2.46,1.2-4
	c0-2.133,0.476-2.8,2-2.8c1.495,0,2,0.667,2,2.639c0,1.839,1.592,4.257,5.25,7.977c5.338,5.428,7.402,6.333,9.55,4.184
	c1.495-1.494,1.587-12.013,0.118-13.482c-0.776-0.776-0.708-1.681,0.24-3.2c1.097-1.756,1.097-2.479,0-4.236
	c-0.948-1.519-1.017-2.424-0.24-3.2c0.776-0.776,1.082-0.519,1.082,0.909c0,1.095,1.8,3.646,4,5.668c2.638,2.425,4,4.537,4,6.201
	c0,1.439,0.858,3.059,2,3.771c2.761,1.725,2.761,7.812,0,9.536c-1.213,0.757-2,2.332-2,4s-0.788,3.243-2,4
	c-1.816,1.134-2,2.332-2,13.041c0,13.143,0.442,14.197,5.95,14.181c4.417-0.013,10.05-5.25,10.05-9.346
	c0-2.491,0.277-2.644,4.8-2.644c5.409,0,7.2-1.234,7.2-4.959c0-1.477,0.846-3.088,2-3.809c1.1-0.687,2-2.149,2-3.249
	c0-1.75,0.25-1.844,2-0.751c1.154,0.721,2,2.332,2,3.809c0,2.909,1.65,4.959,3.991,4.959c0.875,0,3.246-1.8,5.269-4
	c3.205-3.485,4.236-4,8.009-4c2.382,0,4.871-0.54,5.531-1.2c0.934-0.933,1.2-0.269,1.2,2.992c0,3.108,0.517,4.514,2,5.44
	c1.154,0.721,2,2.332,2,3.809c0,3.513,1.75,4.959,6,4.959c1.98,0,4.14-0.54,4.8-1.2c1.553-1.552,1.553-8.047,0-9.6
	c-0.66-0.66-0.871-1.2-0.469-1.2s2.386,1.8,4.409,4c4.069,4.425,6.604,5.022,8.492,2c0.687-1.1,1.933-2,2.768-2s2.081,0.9,2.768,2
	c2.104,3.369,8.04,2.691,11.982-1.367c2.668-2.747,3.25-4.134,3.25-7.749c0-3.32,0.492-4.71,2-5.652c1.723-1.076,2-0.999,2,0.56
	c0,0.995,0.54,2.349,1.2,3.008c0.933,0.934,0.933,1.467,0,2.4c-2.22,2.22-1.232,4.059,6.155,11.445
	c5.432,5.433,8.046,7.355,10,7.355c2.361,0,2.645,0.379,2.645,3.531c0,2.84-0.783,4.25-4,7.208c-4.425,4.069-5.022,6.604-2,8.492
	c1.151,0.719,2,2.332,2,3.8c0,1.696,1.34,3.783,4,6.229c2.638,2.425,4,4.537,4,6.2c0,1.439,0.859,3.059,2,3.771
	c1.384,0.865,2,2.332,2,4.768s-0.616,3.903-2,4.768c-1.566,0.978-2,2.332-2,6.24v4.992h-4.684c-4.533,0-4.939,0.259-12.557,8
	c-4.33,4.4-8.413,8-9.075,8c-0.662,0-1.765-0.9-2.452-2c-0.687-1.1-2.141-2-3.232-2s-2.545,0.9-3.232,2
	c-0.948,1.518-2.335,2.001-5.759,2.005c-4.201,0.004-4.904,0.415-10.278,6l-5.769,5.995h-13.241c-12.158,0-13.343-0.164-14.49-2
	c-0.687-1.1-2.033-1.995-2.99-1.989c-2.701,0.017-8.242,6.299-8.242,9.346c0,2.39-0.362,2.644-3.759,2.644
	C137.349,399.785,135.906,399.209,135.017,397.785z M66.585,274.585c0.934-0.933,1.467-0.933,2.4,0c0.933,0.934,0.667,1.2-1.2,1.2
	S65.652,275.519,66.585,274.585z M859.785,79.785c0-1.867,0.267-2.133,1.2-1.2c0.934,0.934,0.934,1.467,0,2.4
	C860.052,81.918,859.785,81.652,859.785,79.785z M858.231,72.698c-0.37-0.598-0.171-1.588,0.44-2.2
	c0.817-0.817,1.113-0.528,1.113,1.087C859.785,74,859.266,74.372,858.231,72.698z"/>
<g id="points">
	<circle fill="#111416" cx="720.506" cy="1215.978" r="3.375"/>
	<circle fill="#111416" cx="803.751" cy="1171.729" r="3.375"/>
	<circle fill="#111416" cx="822" cy="1178.229" r="3.375"/>
	<circle fill="#111416" cx="783.502" cy="1188.729" r="3.375"/>
	<circle fill="#111416" cx="1071.767" cy="1292.785" r="3.375"/>
	<circle fill="#111416" cx="1118.486" cy="1316.284" r="3.375"/>
	<circle fill="#111416" cx="899.497" cy="1193.479" r="3.375"/>
	<circle fill="#111416" cx="1281.478" cy="1368.219" r="3.374"/>
	<circle fill="#111416" cx="1329.476" cy="1467.965" r="3.374"/>
	<circle fill="#111416" cx="1433.445" cy="1397.522" r="2.416"/>
	<circle fill="#111416" cx="1458.559" cy="1397.522" r="2.416"/>
	<circle fill="#111416" cx="1497.226" cy="1461.216" r="2.416"/>
	<circle fill="#111416" cx="1605.892" cy="1441.227" r="2.416"/>
	<circle fill="#111416" cx="1729.478" cy="1311.219" r="3.374"/>
	<circle fill="#111416" cx="1497.227" cy="1292.785" r="3.375"/>
	<circle fill="#111416" cx="1451.144" cy="1013.987" r="3.374"/>
	<circle fill="#111416" cx="1418.893" cy="889.244" r="3.375"/>
	<circle fill="#111416" cx="1239.893" cy="987.893" r="3.375"/>
	<circle fill="#111416" cx="1122.018" cy="918.992" r="3.375"/>
	<circle fill="#111416" cx="1054.018" cy="1019.992" r="3.375"/>
</g>
<g id="trail-path">
	<polyline fill="none" stroke="#3A8E46" stroke-miterlimit="10" points="803.751,1171.729 822,1179.393 783.502,1188.729 
		720.506,1215.979 783.502,1191.143 899.497,1193.479 957.643,1215.979 987.393,1227.393 998.643,1242.893 1012.893,1257.893 
		1025.643,1267.143 1044.893,1261.393 1034.143,1287.393 1070.393,1292.785 1083.643,1311.643 1118.486,1316.285 1148.279,1322.143 
		1165.893,1337.143 1175.893,1345.893 1180.56,1371.594 1219.227,1379.893 1247.893,1368.219 1278.104,1368.219 1271.227,1385.893 
		1268.56,1395.106 1278.104,1413.893 1278.104,1427.226 1301.893,1430.56 1307.893,1438.811 1304.398,1450.035 1307.893,1458.8 
		1329.476,1467.965 1329.476,1482.56 1339.785,1486.727 1369.893,1493.226 1389.893,1478.56 1420.56,1417.226 1446.56,1404.56 
		1442.56,1397.522 1435.86,1397.522 1456.144,1397.522 1474.56,1403.226 1484.56,1416.56 1489.227,1429.226 1497.227,1441.227 
		1497.227,1461.216 1603.477,1441.227 1729.478,1314.594 1613.892,1438.811 1605.893,1449.894 1612.633,1458.8 1500.602,1463.632 
		1497.227,1296.16 1418.893,892.619 1451.144,1010.612 1243.268,987.893 	"/>
</g>
</svg>
